<svg width="54" height="54" viewBox="0 0 54 54" fill="none" xmlns="http://www.w3.org/2000/svg" xmlns:xlink="http://www.w3.org/1999/xlink">
<circle cx="27.6667" cy="27" r="26.5" fill="#dcf1c9" stroke="#C5F8D8"/>
<circle cx="27" cy="27" r="27" fill="url(#pattern0_20_1763)" fill-opacity="0.3"/>
<path fill-rule="evenodd" clip-rule="evenodd" d="M20.7386 20.5752V21.9128H17.8773V20.5752C17.8773 19.7865 18.5238 19.1446 19.308 19.1446C20.0967 19.1446 20.7386 19.7865 20.7386 20.5752ZM24.6077 26.2054C24.6077 26.994 23.9658 27.6359 23.1771 27.6359C22.9956 27.6359 22.8203 27.6041 22.6601 27.5417C22.6547 27.536 22.6493 27.5304 22.6439 27.5248C22.5262 27.4025 22.3956 27.2857 22.2509 27.1756C23.536 27.0023 24.5429 25.8921 24.5429 24.556C24.5429 23.108 23.3477 21.9128 21.8998 21.9128H21.7465V19.7568C21.7465 18.9727 22.393 18.3261 23.1771 18.3261C23.9658 18.3261 24.6077 18.9727 24.6077 19.7568V26.2054ZM32.287 25.8003C32.2797 25.819 32.2735 25.8381 32.2685 25.8577C32.0751 26.4191 31.5415 26.8237 30.9154 26.8237C30.1313 26.8237 29.4847 26.1818 29.4847 25.3931V22.268C29.4847 21.4839 30.1313 20.8373 30.9154 20.8373C31.7041 20.8373 32.346 21.4839 32.346 22.268V25.3931C32.346 25.5345 32.3254 25.6711 32.287 25.8003ZM28.4768 25.3931C28.4768 26.1818 27.8349 26.8237 27.0463 26.8237C26.2621 26.8237 25.6156 26.1818 25.6156 25.3931V21.1147C25.6156 20.3306 26.2621 19.6841 27.0463 19.6841C27.8349 19.6841 28.4768 20.3306 28.4768 21.1147V25.3931ZM32.7323 28.8273H32.664C32.249 28.8273 31.8767 29.0827 31.7274 29.4699L31.4766 30.1198C31.1399 30.2291 30.8125 30.3648 30.4969 30.5257L29.862 30.2434C29.4824 30.0746 29.038 30.1571 28.7442 30.4509L27.4552 31.74C27.1614 32.0337 27.0789 32.4781 27.2477 32.8577L27.53 33.4926C27.369 33.8083 27.2331 34.136 27.1233 34.4733L26.475 34.7228C26.0873 34.872 25.8316 35.2444 25.8316 35.6597V36.0749C23.8653 36.0761 21.381 36.0788 18.3787 36.0829C18.0723 35.1896 17.3807 34.5057 16.5794 33.8281C15.2487 32.7027 13.5862 31.575 13.7652 28.8868L13.976 25.8119V25.8115C14.0898 24.1314 15.69 23.019 17.3709 22.9269H17.3734C17.3908 22.9269 17.408 22.926 17.425 22.9243C17.4821 22.9219 17.5394 22.9207 17.5966 22.9207H21.8998C22.7956 22.9207 23.535 23.6602 23.535 24.556C23.535 25.4566 22.7956 26.1912 21.8998 26.1912H17.2618C16.9836 26.1912 16.7578 26.4171 16.7578 26.6951C16.7578 26.9733 16.9836 27.1991 17.2618 27.1991H18.4709C20.2488 27.1991 21.3048 27.5874 21.918 28.224C21.9327 28.2392 21.947 28.2545 21.9611 28.2699C21.9744 28.287 21.9888 28.3032 22.0043 28.3186C22.3808 28.7549 22.558 29.2863 22.6484 29.836C22.7575 30.4983 22.7414 31.1891 22.7414 31.8106C22.7414 32.0888 22.9672 32.3145 23.2453 32.3145C23.5234 32.3145 23.7492 32.0888 23.7492 31.8106C23.7492 30.8022 23.7537 29.6406 23.3522 28.6376C24.2698 28.5722 25.049 27.9964 25.4063 27.1933C25.8409 27.5895 26.4177 27.8316 27.0463 27.8316C27.834 27.8316 28.5358 27.4559 28.982 26.8742C29.4296 27.4559 30.1322 27.8316 30.9154 27.8316C31.5056 27.8316 32.0476 27.6206 32.4699 27.2703C32.5652 27.8156 32.6545 28.3334 32.7323 28.8273ZM34.9171 30.9496C35.5121 31.0909 36.0795 31.326 36.601 31.6474L37.6955 31.1608L38.9846 32.4498L38.4998 33.5443C38.8211 34.0658 39.0562 34.6332 39.1976 35.23L40.3141 35.6597V37.4832L39.1976 37.9129C39.0562 38.5078 38.8193 39.0753 38.4998 39.5968L38.9846 40.6912L37.6955 41.9803L36.601 41.4955C36.0814 41.8169 35.5121 42.0519 34.9171 42.1933L34.4874 43.3098H32.664L32.2343 42.1933C31.6375 42.0519 31.0701 41.815 30.5486 41.4955L29.4541 41.9803L28.165 40.6912L28.6516 39.5968C28.3303 39.0771 28.0952 38.5078 27.952 37.9129L26.8356 37.4832V35.6597L27.952 35.23C28.0952 34.6332 28.3303 34.0658 28.6516 33.5443L28.165 32.4498L29.4541 31.1608L30.5486 31.6474C31.0701 31.326 31.6375 31.0909 32.2325 30.9496L32.664 29.8313H34.4874L34.9171 30.9496ZM33.5748 33.39C31.8175 33.39 30.3943 34.8132 30.3943 36.5705C30.3943 38.3279 31.8175 39.7528 33.5748 39.7528C35.3321 39.7528 36.7571 38.3279 36.7571 36.5705C36.7571 34.8132 35.3321 33.39 33.5748 33.39ZM37.8985 16.7809C37.8985 16.5038 38.1234 16.2789 38.4005 16.2789C38.6775 16.2789 38.9024 16.5038 38.9024 16.7809V18.4867C38.9024 18.7637 38.6775 18.9887 38.4005 18.9887C38.1234 18.9887 37.8985 18.7637 37.8985 18.4867V16.7809ZM41.233 19.1114C41.51 19.1114 41.7349 19.3363 41.7349 19.6134C41.7349 19.8904 41.51 20.1153 41.233 20.1153H39.5271C39.2501 20.1153 39.0252 19.8904 39.0252 19.6134C39.0252 19.3363 39.2501 19.1114 39.5271 19.1114H41.233ZM38.9024 22.4459C38.9024 22.7229 38.6775 22.9479 38.4005 22.9479C38.1234 22.9479 37.8985 22.7229 37.8985 22.4459V20.7401C37.8985 20.463 38.1234 20.2381 38.4005 20.2381C38.6775 20.2381 38.9024 20.463 38.9024 20.7401V22.4459ZM35.5679 20.1153C35.2909 20.1153 35.066 19.8904 35.066 19.6134C35.066 19.3363 35.2909 19.1114 35.5679 19.1114H37.2738C37.5508 19.1114 37.7757 19.3363 37.7757 19.6134C37.7757 19.8904 37.5508 20.1153 37.2738 20.1153H35.5679ZM29.4262 13.1921C29.4262 12.9151 29.6511 12.6902 29.9281 12.6902C30.2052 12.6902 30.4301 12.9151 30.4301 13.1921V14.898C30.4301 15.175 30.2052 15.4 29.9281 15.4C29.6511 15.4 29.4262 15.175 29.4262 14.898V13.1921ZM32.7606 15.5227C33.0377 15.5227 33.2626 15.7476 33.2626 16.0246C33.2626 16.3017 33.0377 16.5266 32.7606 16.5266H31.0548C30.7778 16.5266 30.5529 16.3017 30.5529 16.0246C30.5529 15.7476 30.7778 15.5227 31.0548 15.5227H32.7606ZM30.4301 18.8572C30.4301 19.1342 30.2052 19.3592 29.9281 19.3592C29.6511 19.3592 29.4262 19.1342 29.4262 18.8572V17.1514C29.4262 16.8743 29.6511 16.6494 29.9281 16.6494C30.2052 16.6494 30.4301 16.8743 30.4301 17.1514V18.8572ZM27.0956 16.5266C26.8186 16.5266 26.5936 16.3017 26.5936 16.0246C26.5936 15.7476 26.8186 15.5227 27.0956 15.5227H28.8014C29.0784 15.5227 29.3034 15.7476 29.3034 16.0246C29.3034 16.3017 29.0784 16.5266 28.8014 16.5266H27.0956ZM15.0976 13.6336C15.0976 13.3565 15.3225 13.1317 15.5995 13.1317C15.8766 13.1317 16.1015 13.3565 16.1015 13.6336V15.3394C16.1015 15.6164 15.8766 15.8414 15.5995 15.8414C15.3225 15.8414 15.0976 15.6164 15.0976 15.3394V13.6336ZM18.4321 15.9642C18.7091 15.9642 18.9341 16.1891 18.9341 16.4661C18.9341 16.7431 18.7091 16.9681 18.4321 16.9681H16.7263C16.4492 16.9681 16.2243 16.7431 16.2243 16.4661C16.2243 16.1891 16.4492 15.9642 16.7263 15.9642H18.4321ZM16.1015 19.2986C16.1015 19.5757 15.8766 19.8006 15.5995 19.8006C15.3225 19.8006 15.0976 19.5757 15.0976 19.2986V17.5928C15.0976 17.3158 15.3225 17.0909 15.5995 17.0909C15.8766 17.0909 16.1015 17.3158 16.1015 17.5928V19.2986ZM12.767 16.9681C12.49 16.9681 12.2651 16.7431 12.2651 16.4661C12.2651 16.1891 12.49 15.9642 12.767 15.9642H14.4729C14.7499 15.9642 14.9748 16.1891 14.9748 16.4661C14.9748 16.7431 14.7499 16.9681 14.4729 16.9681H12.767ZM31.4176 43.003V43.0212H18.043V37.0873C21.1971 37.0829 23.7932 37.0801 25.8316 37.0788V37.4832C25.8316 37.8985 26.0873 38.2709 26.475 38.4201L27.1236 38.6697C27.2334 39.0063 27.3691 39.3338 27.5298 39.6489C27.5298 39.6488 27.2477 40.2833 27.2477 40.2833C27.0789 40.663 27.1614 41.1073 27.4552 41.4011L28.7442 42.6902C29.0377 42.9836 29.4813 43.0663 29.8607 42.8982L30.497 42.6163C30.7939 42.7676 31.1014 42.897 31.4176 43.003ZM20.5295 38.9971C19.9466 38.9971 19.4754 39.4683 19.4754 40.0511C19.4754 40.634 19.9466 41.1052 20.5295 41.1052C21.1123 41.1052 21.5898 40.634 21.5898 40.0511C21.5898 39.4683 21.1123 38.9971 20.5295 38.9971Z" fill="#38633F"/>
<path fill-rule="evenodd" clip-rule="evenodd" d="M20.7386 20.5752V21.9128H17.8773V20.5752C17.8773 19.7865 18.5238 19.1446 19.308 19.1446C20.0967 19.1446 20.7386 19.7865 20.7386 20.5752ZM24.6077 26.2054C24.6077 26.994 23.9658 27.6359 23.1771 27.6359C22.9956 27.6359 22.8203 27.6041 22.6601 27.5417C22.6547 27.536 22.6493 27.5304 22.6439 27.5248C22.5262 27.4025 22.3956 27.2857 22.2509 27.1756C23.536 27.0023 24.5429 25.8921 24.5429 24.556C24.5429 23.108 23.3477 21.9128 21.8998 21.9128H21.7465V19.7568C21.7465 18.9727 22.393 18.3261 23.1771 18.3261C23.9658 18.3261 24.6077 18.9727 24.6077 19.7568V26.2054ZM32.287 25.8003C32.2797 25.819 32.2735 25.8381 32.2685 25.8577C32.0751 26.4191 31.5415 26.8237 30.9154 26.8237C30.1313 26.8237 29.4847 26.1818 29.4847 25.3931V22.268C29.4847 21.4839 30.1313 20.8373 30.9154 20.8373C31.7041 20.8373 32.346 21.4839 32.346 22.268V25.3931C32.346 25.5345 32.3254 25.6711 32.287 25.8003ZM28.4768 25.3931C28.4768 26.1818 27.8349 26.8237 27.0463 26.8237C26.2621 26.8237 25.6156 26.1818 25.6156 25.3931V21.1147C25.6156 20.3306 26.2621 19.6841 27.0463 19.6841C27.8349 19.6841 28.4768 20.3306 28.4768 21.1147V25.3931ZM32.7323 28.8273H32.664C32.249 28.8273 31.8767 29.0827 31.7274 29.4699L31.4766 30.1198C31.1399 30.2291 30.8125 30.3648 30.4969 30.5257L29.862 30.2434C29.4824 30.0746 29.038 30.1571 28.7442 30.4509L27.4552 31.74C27.1614 32.0337 27.0789 32.4781 27.2477 32.8577L27.53 33.4926C27.369 33.8083 27.2331 34.136 27.1233 34.4733L26.475 34.7228C26.0873 34.872 25.8316 35.2444 25.8316 35.6597V36.0749C23.8653 36.0761 21.381 36.0788 18.3787 36.0829C18.0723 35.1896 17.3807 34.5057 16.5794 33.8281C15.2487 32.7027 13.5862 31.575 13.7652 28.8868L13.976 25.8119C14.0898 24.1319 15.69 23.019 17.3709 22.9269H17.3734C17.3908 22.9269 17.408 22.926 17.425 22.9243C17.4821 22.9219 17.5394 22.9207 17.5966 22.9207H21.8998C22.7956 22.9207 23.535 23.6602 23.535 24.556C23.535 25.4566 22.7956 26.1912 21.8998 26.1912H17.2618C16.9836 26.1912 16.7578 26.4171 16.7578 26.6951C16.7578 26.9733 16.9836 27.1991 17.2618 27.1991H18.4709C20.2488 27.1991 21.3048 27.5874 21.918 28.224C21.9327 28.2392 21.947 28.2545 21.9611 28.2699C21.9744 28.287 21.9888 28.3032 22.0043 28.3186C22.3808 28.7549 22.558 29.2863 22.6484 29.836C22.7575 30.4983 22.7414 31.1891 22.7414 31.8106C22.7414 32.0888 22.9672 32.3145 23.2453 32.3145C23.5234 32.3145 23.7492 32.0888 23.7492 31.8106C23.7492 30.8022 23.7537 29.6406 23.3522 28.6376C24.2698 28.5722 25.049 27.9964 25.4063 27.1933C25.8409 27.5895 26.4177 27.8316 27.0463 27.8316C27.834 27.8316 28.5358 27.4559 28.982 26.8742C29.4296 27.4559 30.1322 27.8316 30.9154 27.8316C31.5056 27.8316 32.0476 27.6206 32.4699 27.2703C32.5652 27.8156 32.6545 28.3334 32.7323 28.8273ZM31.4176 43.003V43.0212H18.043V37.0873C21.1971 37.0829 23.7932 37.0801 25.8316 37.0788V37.4832C25.8316 37.8985 26.0873 38.2709 26.475 38.4201L27.1236 38.6697C27.2334 39.0063 27.3691 39.3338 27.5298 39.6489L27.2477 40.2833C27.0789 40.663 27.1614 41.1073 27.4552 41.4011L28.7442 42.6902C29.0377 42.9836 29.4813 43.0663 29.8607 42.8982L30.497 42.6163C30.7939 42.7676 31.1014 42.897 31.4176 43.003ZM20.5295 38.9971C19.9466 38.9971 19.4754 39.4683 19.4754 40.0511C19.4754 40.634 19.9466 41.1052 20.5295 41.1052C21.1123 41.1052 21.5898 40.634 21.5898 40.0511C21.5898 39.4683 21.1123 38.9971 20.5295 38.9971Z" fill="#47AA73"/>
<defs>
<pattern id="pattern0_20_1763" patternContentUnits="objectBoundingBox" width="1" height="1">
<use xlink:href="#image0_20_1763" transform="translate(-0.374891) scale(0.000874891)"/>
</pattern>
</defs>
</svg>
