<svg xmlns="http://www.w3.org/2000/svg" width="24" height="24" viewBox="0 0 24 24" fill="none">
  <g clip-path="url(#clip0_119_69)">
    <path d="M23.0625 10.05C22.1625 4.7625 17.55 0.75 12 0.75C6.45 0.75 1.8375 4.7625 0.9375 10.05L12 4.5L23.0625 10.05ZM0.9375 13.95C1.8375 19.2375 6.45 23.25 12 23.25C17.55 23.25 22.1625 19.2375 23.0625 13.95L12 19.5L0.9375 13.95Z" fill="#699635"/>
    <path d="M12 4.5L0.9375 10.05C0.825 10.6875 0.75 11.325 0.75 12C0.75 12.675 0.825 13.3125 0.9375 13.95L12 19.5L23.0625 13.95C23.175 13.3125 23.25 12.675 23.25 12C23.25 11.325 23.175 10.6875 23.0625 10.05L12 4.5Z" fill="#FFE62E"/>
    <path d="M9.75 10.65C8.55 10.65 7.425 10.9125 6.4125 11.3625C6.375 11.5875 6.375 11.775 6.375 12C6.375 15.1125 8.8875 17.625 12 17.625C14.1 17.625 15.9375 16.4625 16.9125 14.775C15.525 12.3375 12.825 10.65 9.75 10.65Z" fill="#428BC1"/>
    <path d="M17.55 12.9C17.5875 12.6 17.625 12.3 17.625 12C17.625 8.8875 15.1125 6.375 12 6.375C9.7875 6.375 7.875 7.65 6.9375 9.525C7.8375 9.2625 8.775 9.1125 9.75 9.1125C12.9375 9.1125 15.75 10.6125 17.55 12.9Z" fill="#428BC1"/>
    <path d="M9.74998 9.11243C8.77498 9.11243 7.83748 9.26243 6.93748 9.52493C6.67498 10.0874 6.48748 10.6874 6.41248 11.3624C7.42498 10.9124 8.54998 10.6499 9.74998 10.6499C12.825 10.6499 15.525 12.2999 16.9125 14.7374C17.25 14.1749 17.4375 13.5374 17.55 12.8999C15.75 10.6124 12.9375 9.11243 9.74998 9.11243Z" fill="white"/>
    <path d="M8.24988 12.375C8.45698 12.375 8.62488 12.2071 8.62488 12C8.62488 11.7929 8.45698 11.625 8.24988 11.625C8.04277 11.625 7.87488 11.7929 7.87488 12C7.87488 12.2071 8.04277 12.375 8.24988 12.375Z" fill="white"/>
    <path d="M9.74988 14.625C9.95698 14.625 10.1249 14.4571 10.1249 14.25C10.1249 14.0429 9.95698 13.875 9.74988 13.875C9.54277 13.875 9.37488 14.0429 9.37488 14.25C9.37488 14.4571 9.54277 14.625 9.74988 14.625Z" fill="white"/>
    <path d="M11.9999 14.625C12.207 14.625 12.3749 14.4571 12.3749 14.25C12.3749 14.0429 12.207 13.875 11.9999 13.875C11.7928 13.875 11.6249 14.0429 11.6249 14.25C11.6249 14.4571 11.7928 14.625 11.9999 14.625Z" fill="white"/>
    <path d="M11.9999 16.125C12.207 16.125 12.3749 15.9571 12.3749 15.75C12.3749 15.5429 12.207 15.375 11.9999 15.375C11.7928 15.375 11.6249 15.5429 11.6249 15.75C11.6249 15.9571 11.7928 16.125 11.9999 16.125Z" fill="white"/>
    <path d="M14.9999 14.625C15.207 14.625 15.3749 14.4571 15.3749 14.25C15.3749 14.0429 15.207 13.875 14.9999 13.875C14.7928 13.875 14.6249 14.0429 14.6249 14.25C14.6249 14.4571 14.7928 14.625 14.9999 14.625Z" fill="white"/>
    <path d="M14.9999 16.125C15.207 16.125 15.3749 15.9571 15.3749 15.75C15.3749 15.5429 15.207 15.375 14.9999 15.375C14.7928 15.375 14.6249 15.5429 14.6249 15.75C14.6249 15.9571 14.7928 16.125 14.9999 16.125Z" fill="white"/>
    <path d="M13.4999 15.375C13.707 15.375 13.8749 15.2071 13.8749 15C13.8749 14.7929 13.707 14.625 13.4999 14.625C13.2928 14.625 13.1249 14.7929 13.1249 15C13.1249 15.2071 13.2928 15.375 13.4999 15.375Z" fill="white"/>
    <path d="M8.24988 13.875C8.45698 13.875 8.62488 13.7071 8.62488 13.5C8.62488 13.2929 8.45698 13.125 8.24988 13.125C8.04277 13.125 7.87488 13.2929 7.87488 13.5C7.87488 13.7071 8.04277 13.875 8.24988 13.875Z" fill="white"/>
  </g>
  <defs>
    <clipPath id="clip0_119_69">
      <rect width="24" height="24" fill="white"/>
    </clipPath>
  </defs>
</svg>