<svg width="55" height="54" viewBox="0 0 55 54" fill="none" xmlns="http://www.w3.org/2000/svg" xmlns:xlink="http://www.w3.org/1999/xlink">
<circle cx="27.6667" cy="27" r="26.5" fill="#dcf1c9" stroke="#C5F8D8"/>
<circle cx="27.6667" cy="27" r="27" fill="url(#pattern0_20_1751)" fill-opacity="0.3"/>
<g clip-path="url(#clip0_20_1751)">
<path d="M43.2411 19.4853L40.2299 17.5234C38.3799 16.3184 36.2342 15.6815 34.0261 15.6815H21.3074C19.0992 15.6815 16.9543 16.3184 15.1036 17.5234L12.0924 19.4853C11.8292 19.6559 11.6661 19.9571 11.6667 20.2709V31.8134C12.5824 31.3484 13.6567 31.0965 14.7561 31.0965C16.1349 31.0965 17.4649 31.489 18.5017 32.2028C18.5355 32.2259 18.6611 32.2821 18.8655 32.3065C19.443 31.164 20.2699 30.134 21.3005 29.2928C23.068 27.8509 25.3286 27.0565 27.6667 27.0565C30.0049 27.0565 32.2655 27.8509 34.033 29.2928C35.0636 30.134 35.8905 31.164 36.468 32.3065C36.6724 32.2821 36.798 32.2253 36.8318 32.2021C37.8686 31.489 39.1993 31.0965 40.5774 31.0965C41.6768 31.0965 42.7511 31.3484 43.6667 31.8134V20.2646C43.6661 19.9534 43.5018 19.6546 43.2411 19.4853ZM31.7499 17.5565V20.369H28.6042V17.5565H31.7499ZM26.7292 17.5565V20.369H23.5836V17.5565H26.7292ZM13.5417 24.0143V20.779C13.5417 20.779 16.4974 18.8627 16.6874 18.7571V21.9655L13.5417 24.0143ZM18.5624 20.9048V17.9615C19.4468 17.6946 20.3705 17.5565 21.3074 17.5565H21.7086V20.369H21.3074C20.3591 20.369 19.4296 20.5526 18.5624 20.9048ZM34.0261 20.369H33.6249V17.5565H34.0261C34.963 17.5565 35.8868 17.6946 36.7711 17.9615V20.9049C35.9039 20.5526 34.9744 20.369 34.0261 20.369ZM38.6461 21.9655V18.7571C38.8361 18.8628 41.7917 20.779 41.7917 20.779V24.0144L38.6461 21.9655Z" fill="#47AA73"/>
<path d="M37.8942 33.7473C37.0311 34.3411 35.5167 34.3411 34.653 33.7473C33.1486 32.7129 30.7917 32.7129 29.2874 33.7473C28.8555 34.0442 28.2611 34.1929 27.6667 34.1929C27.0724 34.1929 26.478 34.0442 26.0461 33.7473C24.5417 32.7129 22.1849 32.7129 20.6805 33.7473C19.8167 34.3411 18.3024 34.3411 17.4392 33.7473C15.958 32.7286 13.6486 32.7129 12.1424 33.7011C11.9624 33.8254 11.868 33.9148 11.6667 34.0792V36.3298C12.3161 35.7573 13.0511 35.2617 13.0511 35.2617C13.9142 34.6679 15.513 34.6992 16.3767 35.2929C17.1286 35.8098 18.0942 36.0686 19.0599 36.0686C20.0249 36.0686 20.9905 35.8098 21.7424 35.2929C22.6061 34.6992 24.1205 34.6992 24.9836 35.2929C25.7355 35.8104 26.7011 36.0686 27.6667 36.0686C28.6324 36.0686 29.598 35.8104 30.3499 35.2929C31.213 34.6992 32.7274 34.6992 33.5911 35.2929C34.343 35.8098 35.3086 36.0686 36.2736 36.0686C37.2392 36.0686 38.2049 35.8098 38.9567 35.2929C39.8205 34.6992 41.4192 34.6679 42.2824 35.2617C42.2824 35.2617 43.0174 35.7573 43.6667 36.3298V34.0792C43.4655 33.9148 43.3711 33.8254 43.1911 33.7011C41.6849 32.7129 39.3755 32.7286 37.8942 33.7473Z" fill="#38633F"/>
<path d="M37.8942 37.9973C37.0311 38.5911 35.5167 38.5911 34.653 37.9973C33.1486 36.963 30.7917 36.963 29.2874 37.9973C28.8555 38.2942 28.2611 38.443 27.6667 38.443C27.0724 38.443 26.478 38.2942 26.0461 37.9973C24.5417 36.963 22.1849 36.963 20.6805 37.9973C19.8167 38.5911 18.3024 38.5911 17.4392 37.9973C15.958 36.9792 13.6486 36.9636 12.1424 37.9511C11.9624 38.0755 11.868 38.1648 11.6667 38.3292V38.778C11.6667 39.4886 12.4611 39.9098 13.0505 39.5123H13.0511C13.9142 38.9186 15.513 38.9492 16.3767 39.543C17.1286 40.0598 18.0942 40.3186 19.0599 40.3186C20.0249 40.3186 20.9905 40.0598 21.7424 39.543C22.6061 38.9492 24.1205 38.9492 24.9836 39.543C25.7355 40.0605 26.7011 40.3186 27.6667 40.3186C28.6324 40.3186 29.598 40.0605 30.3499 39.543C31.213 38.9492 32.7274 38.9492 33.5911 39.543C34.343 40.0598 35.3086 40.3186 36.2736 40.3186C37.2392 40.3186 38.2049 40.0598 38.9567 39.543C39.8205 38.9492 41.4192 38.9186 42.2824 39.5123H42.283C42.8724 39.9098 43.6667 39.4886 43.6667 38.778V38.3292C43.4655 38.1648 43.3711 38.0755 43.1911 37.9511C41.6849 36.9636 39.3755 36.9792 37.8942 37.9973Z" fill="#47AA73"/>
</g>
<defs>
<pattern id="pattern0_20_1751" patternContentUnits="objectBoundingBox" width="1" height="1">
<use xlink:href="#image0_20_1751" transform="translate(-0.374891) scale(0.000874891)"/>
</pattern>
<clipPath id="clip0_20_1751">
<rect width="32" height="32" fill="white" transform="translate(11.6667 12)"/>
</clipPath>
</defs>
</svg>
