<svg xmlns="http://www.w3.org/2000/svg" width="16" height="17" viewBox="0 0 16 17" fill="none">
  <path d="M4.75 4.5H3.75V1.5H4.75V4.5ZM12.25 1.5H11.25V4.5H12.25V1.5ZM0.5 7H15.5V13.5C15.5 14.6028 14.6028 15.5 13.5 15.5H2.5C1.39722 15.5 0.5 14.6028 0.5 13.5V7ZM10.5 10C10.5 10.2761 10.7239 10.5 11 10.5H12C12.2761 10.5 12.5 10.2761 12.5 10V9C12.5 8.72388 12.2761 8.5 12 8.5H11C10.7239 8.5 10.5 8.72388 10.5 9V10ZM10.5 13.25C10.5 13.5261 10.7239 13.75 11 13.75H12C12.2761 13.75 12.5 13.5261 12.5 13.25V12.25C12.5 11.9739 12.2761 11.75 12 11.75H11C10.7239 11.75 10.5 11.9739 10.5 12.25V13.25ZM7 10C7 10.2761 7.22388 10.5 7.5 10.5H8.5C8.77612 10.5 9 10.2761 9 10V9C9 8.72388 8.77612 8.5 8.5 8.5H7.5C7.22388 8.5 7 8.72388 7 9V10ZM7 13.25C7 13.5261 7.22388 13.75 7.5 13.75H8.5C8.77612 13.75 9 13.5261 9 13.25V12.25C9 11.9739 8.77612 11.75 8.5 11.75H7.5C7.22388 11.75 7 11.9739 7 12.25V13.25ZM3.5 10C3.5 10.2761 3.72388 10.5 4 10.5H5C5.27612 10.5 5.5 10.2761 5.5 10V9C5.5 8.72388 5.27612 8.5 5 8.5H4C3.72388 8.5 3.5 8.72388 3.5 9V10ZM3.5 13.25C3.5 13.5261 3.72388 13.75 4 13.75H5C5.27612 13.75 5.5 13.5261 5.5 13.25V12.25C5.5 11.9739 5.27612 11.75 5 11.75H4C3.72388 11.75 3.5 11.9739 3.5 12.25V13.25ZM13.5 2.5H12.75V5H10.75V2.5H5.25V5H3.25V2.5H2.5C1.39722 2.5 0.5 3.39722 0.5 4.5V6.25H15.5V4.5C15.5 3.39722 14.6028 2.5 13.5 2.5Z" fill="#818181"/>
</svg>