<svg xmlns="http://www.w3.org/2000/svg" width="14" height="15" viewBox="0 0 14 15" fill="none">
  <path d="M11.9689 2.48495C11.6889 2.27845 11.3614 2.1792 11.0362 2.1792C10.5509 2.1792 10.0714 2.40095 9.76307 2.81972L5.75904 8.56257C5.75904 8.56257 4.59288 7.34688 4.01896 6.74818C3.71058 6.42596 3.29537 6.26419 2.87973 6.26419C2.48662 6.26419 2.09269 6.40905 1.7884 6.70122C1.16228 7.30167 1.1409 8.30566 1.74144 8.93178L4.77854 12.0997C4.77892 12.1001 4.77932 12.1005 4.77977 12.101C5.10207 12.4366 5.55608 12.6128 6.02038 12.5824C6.48469 12.5519 6.91185 12.3181 7.18764 11.9433C7.18767 11.9433 7.18772 11.9432 7.18774 11.9432L12.3037 4.69066C12.8185 3.99191 12.6676 2.99931 11.9689 2.48495Z" fill="#38633F"/>
</svg>