<svg xmlns="http://www.w3.org/2000/svg" width="24" height="25" viewBox="0 0 24 25" fill="none">
  <g clip-path="url(#clip0_216_447)">
    <path d="M23.6663 13.46C23.295 12.8863 22.665 12.545 21.9788 12.545C21.5925 12.545 21.2138 12.6575 20.8875 12.8675C20.04 13.4187 19.7475 14.5025 20.16 15.395L17.8463 16.9662C17.3625 16.2837 16.7063 15.7287 15.9375 15.3762L17.8688 9.88625C18.2738 10.0025 18.7013 10.0625 19.14 10.0625C20.205 10.0625 21.195 9.71375 21.99 9.1175C22.0088 9.1025 22.0238 9.09125 22.0388 9.07625C23.1788 8.2025 23.9175 6.83 23.9175 5.2775C23.9175 2.645 21.7725 0.5 19.14 0.5C17.1563 0.5 15.45 1.71125 14.7263 3.43625L13.4325 2.89625C13.5113 2.46875 13.4475 2.03 13.2413 1.63625C13.0013 1.16 12.585 0.81125 12.0788 0.64625C11.88 0.57875 11.67 0.54875 11.4638 0.54875C11.1525 0.54875 10.8375 0.62375 10.5525 0.76625C10.0763 1.01 9.72751 1.4225 9.56251 1.9325C9.39751 2.4425 9.44251 2.97875 9.68626 3.455C9.93001 3.93125 10.3425 4.28375 10.8525 4.44875C11.0513 4.5125 11.2575 4.54625 11.4638 4.54625C11.7788 4.54625 12.09 4.4675 12.375 4.325C12.7538 4.13 13.0538 3.82625 13.245 3.455L14.535 3.99125C14.415 4.4 14.355 4.83125 14.355 5.2775C14.355 5.84 14.4525 6.37625 14.6288 6.875L10.1813 8.81375C9.39376 7.2575 7.77751 6.18875 5.91751 6.18875C5.30626 6.18875 4.71376 6.305 4.17376 6.51875L3.07876 4.2725C3.44251 4.055 3.72376 3.72125 3.88876 3.31625C4.09501 2.8175 4.09126 2.27 3.88501 1.77125C3.57751 1.0175 2.84251 0.53 2.02501 0.53C1.75876 0.53 1.49626 0.5825 1.24876 0.6875C0.217513 1.11125 -0.269987 2.3 0.161263 3.3275C0.367513 3.82625 0.757513 4.21625 1.25626 4.41875C1.50001 4.52 1.76251 4.5725 2.02501 4.5725C2.19751 4.5725 2.37001 4.55 2.53876 4.505L3.64126 6.7625C2.15251 7.57625 1.13626 9.155 1.13626 10.9625C1.13626 12.5075 1.87501 13.8875 3.01876 14.7612C3.03376 14.7762 3.05251 14.7913 3.07126 14.8025C3.86626 15.395 4.85251 15.7438 5.91751 15.7438C6.97876 15.7438 7.96501 15.395 8.76001 14.8025C8.78251 14.7913 8.80126 14.7762 8.82001 14.7575C8.88376 14.7087 8.94376 14.66 9.00001 14.6075L10.4813 16.4263C9.66751 17.285 9.16501 18.4438 9.16501 19.7188C9.16501 20.0225 9.19501 20.3188 9.25126 20.6112L7.44001 21.0087C7.15501 20.225 6.40501 19.6813 5.55001 19.6813C5.41876 19.6813 5.28751 19.6925 5.15626 19.7188C4.63126 19.8237 4.17751 20.1275 3.87751 20.5775C3.58126 21.0238 3.47251 21.56 3.57751 22.0812C3.76876 23.0225 4.59376 23.7013 5.55001 23.7013C5.68501 23.7013 5.81251 23.6862 5.94376 23.66C6.46876 23.555 6.92626 23.2512 7.22251 22.805C7.46626 22.4412 7.58251 22.0138 7.55626 21.5825L9.39751 21.1813C9.69751 22.1188 10.2825 22.9288 11.0438 23.51C11.0438 23.51 11.0438 23.51 11.0475 23.5138C11.07 23.5287 11.0925 23.5475 11.115 23.5625C11.91 24.1513 12.8888 24.4963 13.9463 24.4963C15.0075 24.4963 15.9938 24.1475 16.7888 23.555C16.8113 23.5438 16.83 23.5287 16.8488 23.51C17.9888 22.6362 18.7238 21.2638 18.7238 19.715C18.7238 18.9013 18.5213 18.1325 18.1575 17.4613L20.4825 15.8825C20.8613 16.31 21.4013 16.5575 21.9863 16.5575C22.3725 16.5575 22.7513 16.4412 23.0775 16.2313C23.5275 15.9425 23.835 15.4887 23.9475 14.9637C24.0638 14.4425 23.9625 13.9063 23.6663 13.46ZM15.2625 20.7987C15.6338 20.45 15.8625 19.955 15.8625 19.4075C15.8625 18.3538 15 17.4913 13.9463 17.4913C12.8888 17.4913 12.03 18.3538 12.03 19.4075C12.03 19.955 12.2588 20.4463 12.63 20.7987C11.7038 21.11 11.1638 21.7513 11.01 22.7C10.485 22.1863 10.095 21.5338 9.90001 20.8063C9.90001 20.795 9.89626 20.7838 9.89626 20.7762C9.89251 20.7575 9.88876 20.7425 9.88126 20.7275C9.87751 20.7237 9.87751 20.72 9.87751 20.7162C9.79876 20.3975 9.75751 20.0637 9.75751 19.7188C9.75751 17.4088 11.6363 15.5262 13.95 15.5262C14.4863 15.5262 15 15.6275 15.4725 15.8113L15.4763 15.815H15.48C16.335 16.1525 17.0513 16.7638 17.5275 17.5363C17.5313 17.54 17.535 17.5437 17.535 17.5475C17.9175 18.1775 18.1388 18.9237 18.1388 19.7188C18.1388 20.885 17.6588 21.9387 16.8863 22.7038C16.7363 21.7512 16.1888 21.11 15.2625 20.7987ZM4.16251 7.16C4.69876 6.9125 5.29126 6.77375 5.92126 6.77375C7.64626 6.77375 9.12751 7.82 9.77251 9.30875V9.31625C9.77251 9.32 9.77626 9.32 9.77626 9.32375C9.99376 9.83 10.1138 10.385 10.1138 10.9662C10.1138 12.1325 9.63376 13.1862 8.86126 13.9513C8.71126 12.9987 8.16751 12.3612 7.23751 12.0463C7.60876 11.7013 7.83751 11.2063 7.83751 10.6588C7.83751 9.60125 6.97501 8.7425 5.92126 8.7425C4.86376 8.7425 4.00501 9.60125 4.00501 10.6588C4.00501 11.2063 4.23376 11.6975 4.60501 12.05C3.67876 12.3612 3.13876 12.9988 2.98501 13.9475C2.21251 13.19 1.73251 12.1362 1.73251 10.9662C1.72876 9.2825 2.73001 7.8275 4.16251 7.16ZM19.14 1.08875C21.4463 1.08875 23.3288 2.9675 23.3288 5.28125C23.3288 6.44375 22.8488 7.50125 22.08 8.2625C21.9263 7.31 21.3825 6.67625 20.4563 6.365C20.8275 6.01625 21.0563 5.52125 21.0563 4.97375C21.0563 3.91625 20.1938 3.0575 19.14 3.0575C18.0825 3.0575 17.2238 3.91625 17.2238 4.97375C17.2238 5.52125 17.4525 6.0125 17.8238 6.365C16.8975 6.67625 16.3575 7.31375 16.2038 8.2625C15.8138 7.88375 15.4988 7.42625 15.2813 6.91625V6.9125C15.0713 6.41 14.9513 5.8625 14.9513 5.28125C14.9513 4.8125 15.03 4.3625 15.1688 3.9425C15.1763 3.92375 15.18 3.905 15.1875 3.88625C15.7613 2.25875 17.3175 1.08875 19.14 1.08875ZM9.43126 14.2025C10.2188 13.3513 10.6988 12.215 10.6988 10.9662C10.6988 10.4 10.6013 9.86 10.4213 9.3575C10.4213 9.3575 10.4213 9.3575 10.4213 9.35375L14.865 7.415C15.1913 8.0675 15.6675 8.6375 16.245 9.0725C16.2563 9.0875 16.275 9.09875 16.29 9.11375C16.605 9.34625 16.9463 9.545 17.3138 9.695L15.3863 15.1625C14.9288 15.0162 14.445 14.9412 13.9463 14.9412C12.7988 14.9412 11.745 15.35 10.9163 16.025L9.43126 14.2025Z" fill="#47AA73"/>
  </g>
  <defs>
    <clipPath id="clip0_216_447">
      <rect width="24" height="24" fill="white" transform="translate(0 0.5)"/>
    </clipPath>
  </defs>
</svg>