<svg width="115" height="115" viewBox="0 0 115 115" fill="none" xmlns="http://www.w3.org/2000/svg">
<circle cx="57.5001" cy="57.4152" r="57.4152" fill="#007EE6"/>
<path d="M35.7268 72.3253C35.7268 72.3331 35.7268 72.3476 35.7179 72.3676C35.7212 72.3543 35.7234 72.3398 35.7268 72.3253Z" fill="white"/>
<path d="M77.9713 74.1545C77.6048 74.1465 77.2429 74.0711 76.9037 73.9318L70.5825 71.6908L70.5357 71.6718C70.3979 71.6144 70.2498 71.5856 70.1004 71.5872C69.9628 71.5874 69.8263 71.6123 69.6974 71.6607C69.5438 71.7186 68.16 72.2385 66.7083 72.6371C65.9212 72.853 63.1814 73.5577 60.9827 73.5577C55.3628 73.5577 50.1081 71.398 46.1883 67.4759C44.2733 65.5727 42.7549 63.3086 41.7209 60.8146C40.6869 58.3206 40.1578 55.6463 40.1643 52.9464C40.1643 51.5397 40.3158 50.137 40.6163 48.7627C41.5949 44.2406 44.1866 40.127 47.9139 37.1846C51.7373 34.1855 56.4573 32.5576 61.3167 32.5623C67.1291 32.5623 72.5452 34.7888 76.5686 38.8167C80.3716 42.6319 82.4556 47.6483 82.4389 52.9409C82.4357 56.8736 81.2613 60.7163 79.0657 63.9791L79.0445 64.0102L78.9622 64.1216C78.9432 64.1472 78.9243 64.1717 78.9065 64.1973L78.8898 64.2273C78.8455 64.3026 78.8054 64.3803 78.7696 64.46L80.5219 70.6877C80.5993 70.9446 80.6413 71.2109 80.6466 71.4792C80.647 71.8307 80.5781 72.1787 80.4438 72.5035C80.3095 72.8283 80.1125 73.1234 79.864 73.3719C79.6155 73.6204 79.3204 73.8174 78.9956 73.9517C78.6709 74.086 78.3228 74.1549 77.9713 74.1545Z" fill="white"/>
<path d="M62.3821 76.3576C62.267 76.1339 62.1052 75.9376 61.9075 75.782C61.7098 75.6264 61.481 75.5151 61.2365 75.4559C60.593 75.2855 59.8427 75.3145 59.2693 75.2722C53.8558 74.8958 48.7616 72.5725 44.928 68.7317C41.52 65.3427 39.3051 60.9383 38.6169 56.1816C38.461 55.0973 38.461 54.8279 38.461 54.8279C38.4609 54.4661 38.3507 54.1129 38.145 53.8153C37.9392 53.5177 37.6478 53.2898 37.3094 53.162C36.9709 53.0341 36.6016 53.0123 36.2505 53.0995C35.8993 53.1867 35.5831 53.3787 35.3438 53.65C35.3438 53.65 34.4665 54.6052 34.0524 55.5638C32.8909 58.24 32.3956 61.1579 32.6088 64.0674C32.8221 66.977 33.7377 69.7915 35.277 72.2697C35.5665 72.7517 35.5665 72.9744 35.5019 73.4754C35.198 75.0462 34.6658 77.8172 34.3886 79.2544C34.2968 79.7205 34.331 80.2026 34.4875 80.6511C34.6441 81.0996 34.9174 81.4983 35.2792 81.806L35.3304 81.8495C35.8092 82.2297 36.4024 82.4368 37.0137 82.4373C37.3576 82.4376 37.6981 82.3698 38.0157 82.238L43.9728 79.9391C44.178 79.8611 44.4045 79.8611 44.6096 79.9391C46.9553 80.8119 49.3968 81.275 51.7102 81.275C54.5926 81.2777 57.4401 80.6444 60.0497 79.4203C60.6576 79.1353 61.6083 78.8258 62.165 78.1823C62.3756 77.9327 62.5085 77.6268 62.5471 77.3025C62.5856 76.9782 62.5283 76.6497 62.3821 76.3576Z" fill="white"/>
</svg>
