<svg xmlns="http://www.w3.org/2000/svg" width="14" height="15" viewBox="0 0 14 15" fill="none">
  <g clip-path="url(#clip0_20_1937)">
    <path d="M3.54294 14.488L3.80069 14.416C4.0486 14.3467 4.19341 14.0896 4.12413 13.8416L1.1773 3.29607C1.13572 3.14725 1.03672 3.02104 0.902079 2.94521C0.767439 2.86938 0.608191 2.85015 0.459369 2.89174L0.426083 2.90103C0.116158 2.98763 -0.0648897 3.30907 0.0216998 3.61899L2.9686 14.1646C3.03788 14.4125 3.29502 14.5573 3.54294 14.488Z" fill="#38633F"/>
    <path d="M13.9203 7.11848C12.9858 6.65251 12.1213 6.05775 11.3521 5.35158C11.2874 5.29239 11.2621 5.20153 11.2869 5.11744C11.668 3.67549 11.9511 2.20938 12.1341 0.729167C12.1631 0.48296 12.0303 0.410547 11.8903 0.579512C9.14343 3.86468 4.39067 -0.0215225 1.56171 2.96434C1.59567 3.02793 1.62239 3.09513 1.64136 3.16468L3.55309 10.0102C6.38688 7.06055 11.1227 10.9226 13.8648 7.64469C14.0048 7.47572 14.0314 7.16675 13.9203 7.11848Z" fill="#38633F"/>
  </g>
  <defs>
    <clipPath id="clip0_20_1937">
      <rect width="14" height="14" fill="white" transform="translate(0 0.5)"/>
    </clipPath>
  </defs>
</svg>