<svg width="54" height="54" viewBox="0 0 54 54" fill="none" xmlns="http://www.w3.org/2000/svg" xmlns:xlink="http://www.w3.org/1999/xlink">
<circle cx="27.6667" cy="27" r="26.5" fill="#dcf1c9" stroke="#C5F8D8"/>
<circle cx="27" cy="27" r="27" fill="url(#pattern0_20_1723)" fill-opacity="0.3"/>
<g>
<path d="M27.8945 24.042L29.8945 20.042C30.1416 19.5478 29.9414 18.9472 29.4473 18.7002C28.9521 18.455 28.3525 18.6543 28.1055 19.1474L26.3818 22.5947H20C19.6211 22.5947 19.2749 22.8086 19.1055 23.1474L17.3818 26.5947H12C11.4477 26.5947 11 27.042 11 27.5947C11 28.1474 11.4477 28.5947 12 28.5947H18C18.3789 28.5947 18.7251 28.3808 18.8945 28.042L20.6182 24.5947H27C27.3789 24.5947 27.7251 24.3808 27.8945 24.042Z" fill="#47AA73"/>
<path d="M17 32.5946H14C12.3457 32.5946 11 33.9403 11 35.5946V40.5946C11 42.2489 12.3457 43.5946 14 43.5946H17C18.6543 43.5946 20 42.2489 20 40.5946V35.5946C20 33.9403 18.6543 32.5946 17 32.5946Z" fill="#38633F"/>
<path d="M40 24.5946H37C35.3457 24.5946 34 25.9403 34 27.5946V40.5946C34 42.2489 35.3457 43.5946 37 43.5946H40C41.6543 43.5946 43 42.2489 43 40.5946V27.5946C43 25.9403 41.6543 24.5946 40 24.5946Z" fill="#38633F"/>
<path d="M35.7554 17.1463C35.9199 17.2665 35.9883 17.4764 35.9253 17.6698C35.9253 17.6698 35.456 19.1144 35.4551 19.117C35.1633 20.015 36.2281 20.7933 36.9942 20.2342L38.2241 19.3407C38.3887 19.2215 38.6104 19.2225 38.7749 19.3397L40.0059 20.2342C40.7605 20.7827 41.8408 20.0284 41.5449 19.117L41.0747 17.6698C41.0117 17.4764 41.0801 17.2665 41.2446 17.1463C41.2446 17.1463 42.4739 16.2531 42.4756 16.2518C43.2412 15.6954 42.8343 14.4432 41.8877 14.4432H40.3662C40.1626 14.4432 39.9839 14.3133 39.9214 14.1209L39.4512 12.6737C39.1633 11.7876 37.8444 11.7633 37.5489 12.6737L37.0787 14.121C37.0162 14.3133 36.8374 14.4432 36.6338 14.4432C36.6338 14.4432 35.1161 14.4432 35.1124 14.4432C34.1732 14.4432 33.762 15.6996 34.5245 16.2518L35.7554 17.1463Z" fill="#47AA73"/>
<path d="M28.5 28.5946H25.5C23.8457 28.5946 22.5 29.9403 22.5 31.5946V40.5946C22.5 42.2489 23.8457 43.5946 25.5 43.5946H28.5C30.1543 43.5946 31.5 42.2489 31.5 40.5946V31.5946C31.5 29.9403 30.1543 28.5946 28.5 28.5946Z" fill="#38633F"/>
</g>
<defs>
<pattern id="pattern0_20_1723" patternContentUnits="objectBoundingBox" width="1" height="1">
<use xlink:href="#image0_20_1723" transform="translate(-0.374891) scale(0.000874891)"/>
</pattern>
<clipPath id="clip0_20_1723">
<rect width="32" height="32" fill="white" transform="translate(11 12)"/>
</clipPath>
</defs>
</svg>
