<svg xmlns="http://www.w3.org/2000/svg" width="35" height="25" viewBox="0 0 35 25" fill="none">
  <g clip-path="url(#clip0_20_1615)">
    <path d="M4.73651 13.4913C3.71911 14.1862 3.30142 14.9506 3.58995 15.6062C3.87168 16.246 4.8634 16.7233 6.03489 16.4152C6.38233 16.3238 6.79549 16.2029 7.26454 16.0556C6.82872 15.4786 6.37856 14.835 5.92462 14.116L4.73651 13.4913Z" fill="#47AA73"/>
    <path d="M8.08183 17.0813C7.15506 17.9945 6.84614 18.8812 7.25703 19.484C7.70493 20.1403 8.85904 20.2808 9.82962 19.7967C10.02 19.7023 10.2277 19.5935 10.4475 19.4757C9.59188 18.7467 8.80043 17.9456 8.08183 17.0813Z" fill="#47AA73"/>
    <path d="M14.2194 24.1458C14.6976 24.6027 15.7467 24.6745 16.6742 24.0113C16.8366 23.895 17.0148 23.7621 17.2029 23.6163C16.3117 23.292 15.3401 22.8124 14.2882 22.1774C13.8086 23.0151 13.7791 23.7243 14.2194 24.1458Z" fill="#47AA73"/>
    <path d="M11.103 19.987C10.4988 20.91 10.4142 21.6933 10.8764 22.1585C11.3387 22.6238 12.4044 22.7213 13.3493 22.0422C13.45 21.9702 13.5611 21.8887 13.6824 21.7975C12.9558 21.3307 12.196 20.7962 11.4029 20.194C11.3659 20.1713 11.2616 20.1033 11.103 19.987Z" fill="#47AA73"/>
    <path d="M29.1618 11.7745C26.4577 10.0267 20.1955 6.87255 18.0156 5.78717C15.8403 9.05691 13.7194 9.63926 12.31 9.54107C10.5282 9.41795 9.13771 8.15356 8.76006 7.33783C8.24267 6.22223 8.96701 5.75167 10.9021 4.48502C11.3734 4.17685 11.9248 3.81657 12.5638 3.38302L7.66032 1.16618C7.02911 0.881363 6.31976 0.819831 5.64893 0.991704C-0.447937 2.57408 -0.334641 6.95035 0.274895 9.41795C0.379068 9.83247 0.570005 10.2202 0.835094 10.5554C1.10018 10.8907 1.43339 11.1659 1.81271 11.3629L6.2343 13.6764C6.27577 13.698 6.31071 13.7304 6.33551 13.7701C9.03423 18.067 11.668 19.737 11.6982 19.7521L11.7186 19.7665C12.6164 20.4508 13.4702 21.0445 14.2799 21.5475H14.2867C15.5412 22.3353 16.6923 22.8987 17.7097 23.2349C19.3941 23.784 20.3095 23.574 20.7808 23.3006C21.2521 23.0271 21.5105 22.5301 21.4833 21.9327C19.6584 21.4478 17.4272 20.2076 14.8456 18.2422C14.7898 18.1998 14.7532 18.1369 14.7438 18.0674C14.7343 17.9979 14.7529 17.9276 14.7954 17.8718C14.8378 17.816 14.9007 17.7793 14.9702 17.7699C15.0397 17.7605 15.1101 17.7791 15.1658 17.8215C17.7399 19.7808 20.0316 21.0414 21.7922 21.4659C23.12 21.7862 24.1246 21.6313 24.6201 21.0286C24.9924 20.5754 25.0415 19.9047 24.7606 19.2158C22.9138 18.7559 20.6411 17.5043 18.0005 15.4944C17.9447 15.452 17.9081 15.3891 17.8987 15.3196C17.8893 15.2501 17.9078 15.1797 17.9503 15.1239C17.9928 15.0682 18.0557 15.0315 18.1251 15.0221C18.1946 15.0127 18.265 15.0312 18.3208 15.0737C20.9251 17.0564 23.2371 18.3216 25.0075 18.7317C26.3573 19.0444 27.3573 18.8601 27.8233 18.212C28.201 17.6833 28.1715 16.8819 27.7531 16.1372C25.858 15.7935 23.364 14.4755 20.5263 12.3146C20.4969 12.2942 20.4719 12.2682 20.4528 12.2379C20.4337 12.2076 20.421 12.1738 20.4154 12.1385C20.4098 12.1032 20.4114 12.0671 20.4202 12.0324C20.4289 11.9977 20.4446 11.9652 20.4663 11.9367C20.488 11.9083 20.5152 11.8846 20.5463 11.8669C20.5775 11.8493 20.6119 11.8382 20.6474 11.8343C20.6829 11.8303 20.7189 11.8337 20.7532 11.844C20.7874 11.8544 20.8192 11.8716 20.8465 11.8946C24.4229 14.6137 26.6889 15.4325 27.9608 15.6372C29.2811 15.8502 30.2124 15.5178 30.5168 14.727C30.834 13.9068 30.411 12.585 29.1618 11.7745Z" fill="#47AA73"/>
    <path d="M29.4186 1.94264C28.9547 1.70632 28.4411 1.58407 27.9205 1.58604C27.4 1.58801 26.8873 1.71414 26.4253 1.95397L25.4434 2.46833C25.7779 2.74508 26.0947 3.0425 26.392 3.35884C26.439 3.41093 26.4634 3.47954 26.4598 3.54958C26.4561 3.61963 26.4249 3.68537 26.3728 3.73234C26.3207 3.77932 26.2521 3.80368 26.182 3.80007C26.112 3.79646 26.0462 3.76517 25.9993 3.71308C25.628 3.32128 25.2275 2.9582 24.8013 2.62695C22.9357 1.15409 19.2604 -0.90262 15.585 1.8671C13.6764 3.3022 12.2398 4.24331 11.1907 4.92838C9.20041 6.22902 8.93378 6.45864 9.23893 7.11878C9.52066 7.72303 10.7208 8.90434 12.3463 9.01688C14.2021 9.14528 16.0549 7.86201 17.7014 5.30604C17.783 5.17839 17.9703 4.80149 18.135 4.46915C18.2702 4.19648 18.3978 3.94043 18.4703 3.81203C18.487 3.78081 18.5098 3.75326 18.5373 3.731C18.5648 3.70874 18.5965 3.69224 18.6305 3.68246C18.6645 3.67268 18.7001 3.66983 18.7353 3.67408C18.7704 3.67833 18.8043 3.68958 18.835 3.70719C18.8657 3.72479 18.8926 3.74837 18.914 3.77655C18.9354 3.80472 18.951 3.8369 18.9597 3.87119C18.9684 3.90548 18.9702 3.94118 18.9649 3.97617C18.9596 4.01116 18.9473 4.04472 18.9288 4.07488C18.8639 4.18818 18.74 4.43818 18.6086 4.70405C18.4975 4.93065 18.382 5.15724 18.2898 5.33549C20.5112 6.44202 26.738 9.58034 29.4488 11.3327C29.9765 11.6698 30.4166 12.1275 30.7328 12.6681L32.5229 11.9165C33.109 11.6739 33.6107 11.2641 33.9654 10.7383C34.3201 10.2124 34.5122 9.59377 34.5177 8.95947C34.5313 6.94884 33.6566 4.09829 29.4186 1.94264Z" fill="#47AA73"/>
  </g>
  <defs>
    <clipPath id="clip0_20_1615">
      <rect width="34.5185" height="24" fill="white" transform="translate(0 0.5)"/>
    </clipPath>
  </defs>
</svg>