<svg width="115" height="115" viewBox="0 0 115 115" fill="none" xmlns="http://www.w3.org/2000/svg">
<circle cx="57.5001" cy="57.4152" r="57.4152" fill="#007EE6"/>
<g clip-path="url(#clip0_137_4772)">
<path d="M33.827 63.7534C31.8752 65.0865 31.0739 66.5529 31.6274 67.8106C32.1679 69.038 34.0705 69.9537 36.3179 69.3625C36.9844 69.1872 37.777 68.9554 38.6769 68.6728C37.8408 67.5658 36.9772 66.3312 36.1063 64.9517L33.827 63.7534Z" fill="white"/>
<path d="M40.2438 70.6404C38.4659 72.3922 37.8732 74.0934 38.6615 75.2497C39.5208 76.5089 41.7348 76.7784 43.5968 75.8496C43.962 75.6684 44.3605 75.4598 44.7821 75.2337C43.1407 73.8353 41.6224 72.2985 40.2438 70.6404Z" fill="white"/>
<path d="M52.0197 84.1931C52.9369 85.0698 54.9496 85.2074 56.7289 83.9352C57.0405 83.712 57.3824 83.457 57.7432 83.1774C56.0334 82.5552 54.1695 81.6351 52.1515 80.417C51.2314 82.0239 51.1749 83.3846 52.0197 84.1931Z" fill="white"/>
<path d="M46.041 76.2148C44.8817 77.9855 44.7195 79.4882 45.6062 80.3807C46.493 81.2733 48.5376 81.4603 50.3503 80.1576C50.5435 80.0195 50.7565 79.863 50.9893 79.6881C49.5954 78.7926 48.1377 77.7672 46.6162 76.6119C46.5452 76.5684 46.3452 76.438 46.041 76.2148Z" fill="white"/>
<path d="M80.6858 60.4597C75.4984 57.1067 63.4846 51.0556 59.3028 48.9734C55.1296 55.2462 51.0608 56.3634 48.357 56.175C44.9388 55.9388 42.2711 53.5132 41.5466 51.9482C40.5541 49.808 41.9437 48.9053 45.656 46.4753C46.5602 45.8841 47.618 45.193 48.8438 44.3612L39.4369 40.1084C38.2259 39.562 36.8651 39.4439 35.5782 39.7737C23.8818 42.8093 24.0991 51.2049 25.2685 55.9388C25.4683 56.734 25.8346 57.4778 26.3432 58.121C26.8517 58.7642 27.491 59.2921 28.2186 59.67L36.7011 64.1083C36.7807 64.1499 36.8477 64.2119 36.8953 64.288C42.0726 72.5314 47.1253 75.7352 47.1833 75.7641L47.2224 75.7917C48.9448 77.1045 50.5826 78.2434 52.136 79.2084H52.149C54.5558 80.7198 56.7641 81.8007 58.7159 82.4455C61.9472 83.499 63.7034 83.0961 64.6076 82.5716C65.5118 82.0471 66.0073 81.0936 65.9552 79.9474C62.4544 79.0172 58.174 76.6379 53.2213 72.8676C53.1143 72.7861 53.044 72.6655 53.0259 72.5322C53.0078 72.3989 53.0435 72.2639 53.1249 72.1568C53.2064 72.0498 53.3271 71.9795 53.4603 71.9615C53.5936 71.9434 53.7286 71.979 53.8357 72.0605C58.7739 75.8192 63.1702 78.2376 66.5478 79.0519C69.0952 79.6663 71.0224 79.3693 71.9729 78.213C72.6873 77.3436 72.7815 76.0568 72.2424 74.7353C68.6996 73.8529 64.3395 71.4519 59.2738 67.5961C59.1668 67.5146 59.0965 67.394 59.0784 67.2607C59.0604 67.1274 59.096 66.9924 59.1774 66.8853C59.2589 66.7783 59.3796 66.708 59.5129 66.69C59.6461 66.6719 59.7812 66.7075 59.8882 66.789C64.8844 70.5926 69.3198 73.0197 72.7163 73.8065C75.3056 74.4064 77.2241 74.0529 78.1182 72.8096C78.8427 71.7953 78.7862 70.2579 77.9834 68.8292C74.3478 68.1699 69.5632 65.6414 64.1193 61.4958C64.0628 61.4568 64.0149 61.4067 63.9783 61.3487C63.9418 61.2906 63.9174 61.2257 63.9066 61.158C63.8958 61.0902 63.8989 61.021 63.9157 60.9544C63.9325 60.8879 63.9626 60.8255 64.0042 60.7709C64.0458 60.7163 64.0981 60.6708 64.1578 60.637C64.2175 60.6032 64.2834 60.5819 64.3516 60.5744C64.4198 60.5668 64.4889 60.5732 64.5545 60.5931C64.6202 60.613 64.6811 60.646 64.7337 60.6901C71.5947 65.9065 75.9418 67.4773 78.3819 67.8699C80.9148 68.2786 82.7014 67.641 83.2853 66.1239C83.8939 64.5503 83.0825 62.0145 80.6858 60.4597Z" fill="white"/>
<path d="M81.1785 41.5981C80.2886 41.1448 79.3034 40.9102 78.3046 40.914C77.3059 40.9178 76.3225 41.1598 75.436 41.6199L73.5523 42.6066C74.194 43.1376 74.8019 43.7081 75.3723 44.315C75.4624 44.4149 75.5091 44.5466 75.5022 44.6809C75.4953 44.8153 75.4353 44.9414 75.3353 45.0315C75.2354 45.1217 75.1038 45.1684 74.9694 45.1615C74.835 45.1545 74.7089 45.0945 74.6188 44.9946C73.9065 44.243 73.1383 43.5464 72.3207 42.9109C68.7416 40.0854 61.6907 36.1397 54.6399 41.4532C50.9782 44.2063 48.2222 46.0118 46.2095 47.3261C42.3914 49.8212 41.8799 50.2617 42.4653 51.5282C43.0058 52.6874 45.3082 54.9536 48.4265 55.1695C51.9867 55.4159 55.5412 52.954 58.7 48.0506C58.8565 47.8057 59.2158 47.0826 59.5317 46.4451C59.7911 45.922 60.036 45.4307 60.1751 45.1844C60.2071 45.1245 60.2507 45.0717 60.3035 45.029C60.3563 44.9863 60.4171 44.9546 60.4823 44.9358C60.5476 44.9171 60.6159 44.9116 60.6833 44.9198C60.7507 44.9279 60.8158 44.9495 60.8747 44.9833C60.9336 45.017 60.9851 45.0623 61.0262 45.1163C61.0673 45.1704 61.0971 45.2321 61.1139 45.2979C61.1307 45.3637 61.1341 45.4322 61.1239 45.4993C61.1137 45.5664 61.0902 45.6308 61.0546 45.6887C60.93 45.906 60.6924 46.3856 60.4402 46.8957C60.2272 47.3304 60.0055 47.7651 59.8288 48.1071C64.0903 50.2299 76.0359 56.2505 81.2364 59.6122C82.2488 60.259 83.0931 61.1371 83.6997 62.1741L87.1339 60.7323C88.2583 60.2669 89.2207 59.4807 89.9013 58.4719C90.5818 57.4631 90.9503 56.2763 90.9607 55.0594C90.9868 51.2022 89.3089 45.7336 81.1785 41.5981Z" fill="white"/>
</g>
<defs>
<clipPath id="clip0_137_4772">
<rect width="66.2212" height="46.0423" fill="white" transform="translate(24.7422 38.8303)"/>
</clipPath>
</defs>
</svg>
