<svg width="55" height="54" viewBox="0 0 55 54" fill="none" xmlns="http://www.w3.org/2000/svg" xmlns:xlink="http://www.w3.org/1999/xlink">
<circle cx="27.6667" cy="27" r="26.5" fill="#dcf1c9" stroke="#C5F8D8"/>
<circle cx="27.3334" cy="27" r="27" fill="url(#pattern0_20_1775)" fill-opacity="0.3"/>
<g clip-path="url(#clip0_20_1775)">
<path d="M28.6872 20.9409C28.1263 20.9553 27.653 20.3991 27.763 19.8448L28.1376 17.661L26.551 16.1143C26.2954 15.8653 26.2034 15.4927 26.3138 15.1532C26.424 14.8138 26.7174 14.5664 27.0706 14.5151L29.2633 14.1965L30.2439 12.2095C30.4019 11.8895 30.7278 11.6869 31.0847 11.6869C31.4416 11.6869 31.7675 11.8895 31.9254 12.2095L32.906 14.1965L35.0987 14.5151C35.4519 14.5664 35.7453 14.8138 35.8555 15.1532C35.9658 15.4926 35.8738 15.8652 35.6182 16.1143L34.0316 17.661L34.4061 19.8448C34.4664 20.1966 34.3218 20.552 34.0331 20.7618C33.7444 20.9715 33.3617 20.9992 33.0457 20.8332L31.0845 19.8021L29.1233 20.8332C28.9862 20.9052 28.8364 20.9409 28.6872 20.9409Z" fill="#38633F"/>
<path d="M34.4885 30.4342C33.9277 30.4486 33.4544 29.8924 33.5644 29.3381L34.0336 26.6024L32.046 24.665C31.7904 24.4159 31.6984 24.0433 31.8087 23.704C31.919 23.3646 32.2124 23.1172 32.5655 23.0659L35.3123 22.6668L36.5406 20.1778C36.6985 19.8578 37.0244 19.6552 37.3813 19.6552C37.7382 19.6552 38.0641 19.8577 38.2221 20.1777L39.4504 22.6667L42.1972 23.0658C42.5503 23.1171 42.8437 23.3645 42.954 23.7039C43.0643 24.0433 42.9723 24.4159 42.7167 24.6649L40.7291 26.6024L41.1984 29.338C41.2587 29.6897 41.114 30.0453 40.8253 30.255C40.5368 30.4647 40.1541 30.4925 39.838 30.3264L37.3812 29.0348L34.9245 30.3264C34.7875 30.3986 34.6377 30.4342 34.4885 30.4342Z" fill="#47AA73"/>
<path d="M34.8324 33.4245C34.2618 32.5204 33.2832 31.9791 32.2142 31.9765L29.7833 31.9691L30.2033 30.1586C30.383 29.3844 30.2463 28.5893 29.8184 27.9195C29.2497 26.9942 28.1774 26.4948 27.1047 26.6163C26.8632 26.6163 26.6432 26.7555 26.5398 26.9737L25.1812 29.8416C24.8207 30.6029 24.2621 31.2559 23.5658 31.7299L20.769 33.6343V42.3131H29.6495C31.209 42.3131 32.6482 41.4024 33.3158 39.9931L35.0126 36.4113C35.4703 35.4452 35.4029 34.3287 34.8324 33.4245Z" fill="#38633F"/>
<path d="M15.3966 33.6351C15.0514 33.6351 14.7716 33.915 14.7716 34.2602V41.6837C14.7716 42.0289 15.0514 42.3087 15.3966 42.3087H18.894V33.6351H15.3966Z" fill="#38633F"/>
<path d="M19.8406 22.6907C22.1541 22.6907 24.0295 20.8153 24.0295 18.5019C24.0295 16.1884 22.1541 14.313 19.8406 14.313C17.5272 14.313 15.6517 16.1884 15.6517 18.5019C15.6517 20.8153 17.5272 22.6907 19.8406 22.6907Z" fill="#47AA73"/>
<path d="M19.8406 24.5658C18.8837 24.5658 17.9781 24.3427 17.1725 23.9463C14.5165 24.1841 12.3155 26.1667 11.8358 28.835L11.0167 33.3904C10.9799 33.595 11.0027 33.8084 11.0958 33.9944C11.2582 34.3193 11.5856 34.515 11.9357 34.515H13.5216V32.6976C13.5216 32.1798 13.9414 31.7601 14.4591 31.7601H20.19L22.5105 30.18C22.9313 29.8935 23.2688 29.4989 23.4867 29.039L24.8452 26.1709C25.0323 25.7761 25.3182 25.4457 25.6641 25.2017C24.7752 24.5016 23.6865 24.0523 22.5079 23.9467C21.7024 24.3429 20.7971 24.5658 19.8406 24.5658Z" fill="#47AA73"/>
</g>
<defs>
<pattern id="pattern0_20_1775" patternContentUnits="objectBoundingBox" width="1" height="1">
<use xlink:href="#image0_20_1775" transform="translate(-0.374891) scale(0.000874891)"/>
</pattern>
<clipPath id="clip0_20_1775">
<rect width="32" height="32" fill="white" transform="translate(11 11)"/>
</clipPath>
</defs>
</svg>
