<svg xmlns="http://www.w3.org/2000/svg" width="14" height="15" viewBox="0 0 14 15" fill="none">
<g clip-path="url(#clip0_8_596)">
<path d="M12.04 8.35254C11.83 8.77254 11.55 9.19254 11.27 9.54254C12.11 9.96254 12.6 10.4525 12.6 10.9425C12.6 12.5525 9.03 13.1125 7 13.1125C3.5 13.1125 1.4 11.9925 1.4 10.9425C1.4 10.4525 1.89 9.89254 2.73 9.54254C2.45 9.12254 2.17 8.77254 1.96 8.35254C0.7 8.98254 0 9.89254 0 11.0125C0 13.1125 2.8 14.5825 7 14.5825C11.2 14.5825 14 13.1125 14 11.0125C14 9.89254 13.3 8.98254 12.04 8.35254Z" fill="#38633F"/>
<path d="M6.99998 0.582581C4.26998 0.582581 2.09998 2.75258 2.09998 5.48258C2.09998 8.21258 6.99998 12.4826 6.99998 12.4826C6.99998 12.4826 11.9 8.21258 11.9 5.48258C11.9 2.75258 9.72997 0.582581 6.99998 0.582581ZM6.99998 7.58258C5.80998 7.58258 4.89998 6.67258 4.89998 5.48258C4.89998 4.29258 5.80998 3.38258 6.99998 3.38258C8.18997 3.38258 9.09997 4.29258 9.09997 5.48258C9.09997 6.67258 8.18997 7.58258 6.99998 7.58258Z" fill="#38633F"/>
</g>
<defs>
<clipPath id="clip0_8_596">
<rect width="14" height="14" fill="white" transform="translate(0 0.582642)"/>
</clipPath>
</defs>
</svg>