<svg xmlns="http://www.w3.org/2000/svg" width="24" height="25" viewBox="0 0 24 25" fill="none">
  <g clip-path="url(#clip0_20_1628)">
    <path d="M12 6.00688C13.5207 6.00688 14.7535 4.77412 14.7535 3.25344C14.7535 1.73276 13.5207 0.5 12 0.5C10.4793 0.5 9.24658 1.73276 9.24658 3.25344C9.24658 4.77412 10.4793 6.00688 12 6.00688Z" fill="#47AA73"/>
    <path d="M15.3614 7.1405H12H8.63861C7.55462 7.1405 6.6759 8.01922 6.6759 9.10321V13.2343V16.436C6.6759 17.0692 7.18923 17.5826 7.82247 17.5826C8.4557 17.5826 8.96903 17.0692 8.96903 16.436V24.5H11.2969V17.1165H12.7031V24.5H15.031V16.436C15.031 17.0692 15.5443 17.5826 16.1776 17.5826C16.8108 17.5826 17.3241 17.0692 17.3241 16.436V13.2343V9.10321C17.3241 8.01922 16.4454 7.1405 15.3614 7.1405Z" fill="#47AA73"/>
    <path d="M4.96171 7.26514C6.37891 7.26514 7.52779 6.11626 7.52779 4.69906C7.52779 3.28185 6.37891 2.13298 4.96171 2.13298C3.5445 2.13298 2.39563 3.28185 2.39563 4.69906C2.39563 6.11626 3.5445 7.26514 4.96171 7.26514Z" fill="#47AA73"/>
    <path d="M5.26959 16.436V13.2343V9.10321C5.26959 8.99076 5.27541 8.87961 5.28619 8.76997H4.96186H1.82916C0.818953 8.76993 0 9.58888 0 10.5991V14.4491V17.433C0 18.0231 0.478406 18.5016 1.06856 18.5016C1.65872 18.5016 2.13713 18.0231 2.13713 17.433V24.5H4.25873V17.8036H5.66498V24.5H7.56277V18.9757C6.27661 18.8452 5.26959 17.756 5.26959 16.436Z" fill="#47AA73"/>
    <path d="M19.0382 7.26514C20.4555 7.26514 21.6043 6.11626 21.6043 4.69906C21.6043 3.28185 20.4555 2.13298 19.0382 2.13298C17.621 2.13298 16.4722 3.28185 16.4722 4.69906C16.4722 6.11626 17.621 7.26514 19.0382 7.26514Z" fill="#47AA73"/>
    <path d="M22.1709 8.76993H19.0382H18.7138C18.7247 8.87957 18.7304 8.99071 18.7304 9.10316V13.2343V16.436C18.7304 17.756 17.7234 18.8452 16.4373 18.9757V24.5H18.335V17.8036H19.7413V24.5H21.8629V17.433C21.8629 18.0231 22.3413 18.5016 22.9315 18.5016C23.5216 18.5016 24 18.0231 24 17.433V14.4491V10.5991C24 9.58888 23.1811 8.76993 22.1709 8.76993Z" fill="#47AA73"/>
  </g>
  <defs>
    <clipPath id="clip0_20_1628">
      <rect width="24" height="24" fill="white" transform="translate(0 0.5)"/>
    </clipPath>
  </defs>
</svg>