<svg xmlns="http://www.w3.org/2000/svg" width="15" height="15" viewBox="0 0 15 15" fill="none">
  <g clip-path="url(#clip0_71_120)">
    <path d="M12.54 8.2699C12.33 8.6899 12.05 9.1099 11.77 9.4599C12.61 9.8799 13.1 10.3699 13.1 10.8599C13.1 12.4699 9.53 13.0299 7.5 13.0299C4 13.0299 1.9 11.9099 1.9 10.8599C1.9 10.3699 2.39 9.8099 3.23 9.4599C2.95 9.0399 2.67 8.6899 2.46 8.2699C1.2 8.8999 0.5 9.8099 0.5 10.9299C0.5 13.0299 3.3 14.4999 7.5 14.4999C11.7 14.4999 14.5 13.0299 14.5 10.9299C14.5 9.8099 13.8 8.8999 12.54 8.2699Z" fill="#818181"/>
    <path d="M7.49998 0.5C4.76998 0.5 2.59998 2.67 2.59998 5.4C2.59998 8.13 7.49998 12.4 7.49998 12.4C7.49998 12.4 12.4 8.13 12.4 5.4C12.4 2.67 10.23 0.5 7.49998 0.5ZM7.49998 7.5C6.30998 7.5 5.39998 6.59 5.39998 5.4C5.39998 4.21 6.30998 3.3 7.49998 3.3C8.68997 3.3 9.59997 4.21 9.59997 5.4C9.59997 6.59 8.68997 7.5 7.49998 7.5Z" fill="#818181"/>
  </g>
  <defs>
    <clipPath id="clip0_71_120">
      <rect width="14" height="14" fill="white" transform="translate(0.5 0.5)"/>
    </clipPath>
  </defs>
</svg>