<svg xmlns="http://www.w3.org/2000/svg" width="14" height="14" viewBox="0 0 14 14" fill="none">
  <g clip-path="url(#clip0_20_1568)">
    <path d="M3.15573 13.2855C3.3141 13.1271 3.43973 12.9391 3.52545 12.7322C3.61117 12.5253 3.65529 12.3036 3.65531 12.0796C3.65532 11.8556 3.61122 11.6339 3.52552 11.4269C3.43983 11.22 3.31422 11.032 3.15586 10.8736C2.99751 10.7153 2.80951 10.5896 2.6026 10.5039C2.39569 10.4182 2.17392 10.3741 1.94996 10.3741C1.726 10.374 1.50423 10.4181 1.29731 10.5038C1.09039 10.5895 0.90238 10.7151 0.744006 10.8735C0.269592 11.3476 0.0820142 12.0829 0.0232252 12.7487C-0.0104515 13.1254 -0.00825409 13.5045 0.0297877 13.8808C0.0399049 13.9751 0.130686 13.9964 0.146272 13.9992H0.15092C0.188928 13.9992 0.733889 14.0115 0.90178 13.4796C0.931934 13.3805 0.976231 13.2862 1.0333 13.1996C1.05696 13.1655 1.09145 13.1404 1.13117 13.1283C1.1709 13.1162 1.21354 13.1179 1.25218 13.1331C1.29082 13.1483 1.3232 13.1761 1.34407 13.212C1.36494 13.2479 1.37308 13.2898 1.36717 13.3309C1.3399 13.5329 1.38182 13.7382 1.48612 13.9133C1.49751 13.9328 1.5145 13.9484 1.53487 13.9582C1.55525 13.9679 1.57808 13.9713 1.60041 13.968C2.17135 13.8805 2.75596 13.6853 3.15573 13.2855Z" fill="#38633F"/>
    <path d="M13.9866 1.27913C13.9453 0.565736 13.4343 0.0546809 12.7209 0.0133918C10.2976 -0.130983 7.59718 0.896595 5.49116 3.00261L4.92952 3.56425C4.727 3.7666 4.53468 3.97423 4.35257 4.18714H2.58179C2.20581 4.20163 1.87331 4.41847 1.68519 4.73675L0.644211 6.81898C0.616411 6.89371 0.59697 6.97129 0.586243 7.05031C0.587881 7.18427 0.641918 7.31226 0.736778 7.40686C0.831638 7.50147 0.959777 7.55516 1.09374 7.55644H2.40843C2.23781 8.13066 2.35156 8.69585 2.71659 9.06034L4.93937 11.2831C5.30413 11.6482 5.86906 11.7619 6.44327 11.5913V12.9073C6.44491 13.0411 6.49875 13.1689 6.59332 13.2634C6.68789 13.358 6.81568 13.4118 6.94941 13.4135C7.02842 13.4027 7.106 13.3833 7.18073 13.3555L9.26296 12.3145C9.58124 12.1264 9.79808 11.795 9.81257 11.4179V9.64742C10.0249 9.46512 10.2326 9.27281 10.4355 9.07046L10.9971 8.50882C13.1034 6.40281 14.131 3.70234 13.9866 1.27913ZM11.0362 5.49855C10.7855 5.74922 10.4662 5.91994 10.1185 5.9891C9.77079 6.05827 9.41039 6.02278 9.08287 5.88712C8.75535 5.75146 8.47542 5.52172 8.27847 5.22697C8.08151 4.93221 7.97639 4.58567 7.97639 4.23117C7.97639 3.87666 8.08151 3.53012 8.27847 3.23536C8.47542 2.94061 8.75535 2.71087 9.08287 2.57521C9.41039 2.43955 9.77079 2.40406 10.1185 2.47323C10.4662 2.54239 10.7855 2.71311 11.0362 2.96378C11.3723 3.29992 11.5612 3.75581 11.5612 4.23117C11.5612 4.70652 11.3723 5.16241 11.0362 5.49855Z" fill="#38633F"/>
    <path d="M2.16344 2.79508C2.06575 2.69734 2.01086 2.56481 2.01086 2.42662C2.01086 2.28843 2.06575 2.1559 2.16344 2.05816L3.51313 0.708476C3.61103 0.610573 3.74382 0.555573 3.88227 0.555573C4.02073 0.555573 4.15351 0.610573 4.25141 0.708476C4.34932 0.806378 4.40432 0.939162 4.40432 1.07762C4.40432 1.21607 4.34932 1.34885 4.25141 1.44676L2.90173 2.79644C2.85322 2.84493 2.79562 2.88337 2.73222 2.90956C2.66883 2.93574 2.60089 2.94915 2.5323 2.94903C2.46371 2.9489 2.39583 2.93524 2.33253 2.90882C2.26923 2.8824 2.21177 2.84375 2.16344 2.79508Z" fill="#38633F"/>
    <path d="M0.206966 2.48583C0.109603 2.38814 0.0549316 2.25584 0.0549316 2.11792C0.0549316 1.98 0.109603 1.8477 0.206966 1.75001L0.899037 1.05684C0.997382 0.962184 1.12894 0.909884 1.26543 0.911187C1.40193 0.91249 1.53246 0.967291 1.62898 1.06381C1.7255 1.16033 1.7803 1.29087 1.78161 1.42736C1.78291 1.56386 1.73061 1.69541 1.63595 1.79376L0.94388 2.48583C0.895598 2.5344 0.838188 2.57295 0.774954 2.59925C0.71172 2.62555 0.64391 2.63909 0.575423 2.63909C0.506937 2.63909 0.439127 2.62555 0.375893 2.59925C0.312659 2.57295 0.255249 2.5344 0.206966 2.48583Z" fill="#38633F"/>
    <path d="M11.1609 11.7923C11.1123 11.744 11.0738 11.6866 11.0475 11.6233C11.0212 11.5601 11.0076 11.4923 11.0076 11.4238C11.0076 11.3553 11.0212 11.2875 11.0475 11.2243C11.0738 11.161 11.1123 11.1036 11.1609 11.0553L12.5103 9.70703C12.608 9.60913 12.7406 9.55405 12.879 9.55392C13.0173 9.5538 13.15 9.60862 13.2479 9.70634C13.3458 9.80407 13.4009 9.93668 13.401 10.075C13.4011 10.2133 13.3463 10.346 13.2486 10.4439L11.8992 11.7936C11.8507 11.8421 11.7931 11.8806 11.7297 11.9067C11.6663 11.9329 11.5983 11.9463 11.5297 11.9462C11.4612 11.9461 11.3933 11.9324 11.33 11.906C11.2667 11.8796 11.2092 11.8409 11.1609 11.7923Z" fill="#38633F"/>
    <path d="M11.4698 13.7487C11.3721 13.651 11.3173 13.5184 11.3173 13.3803C11.3173 13.2421 11.3721 13.1095 11.4698 13.0118L12.1619 12.3197C12.2103 12.2713 12.2678 12.2328 12.331 12.2065C12.3943 12.1802 12.4621 12.1667 12.5306 12.1666C12.5991 12.1666 12.6669 12.18 12.7302 12.2061C12.7935 12.2323 12.851 12.2707 12.8995 12.319C12.948 12.3674 12.9865 12.4249 13.0127 12.4881C13.039 12.5514 13.0525 12.6192 13.0526 12.6877C13.0527 12.7562 13.0392 12.824 13.0131 12.8873C12.9869 12.9506 12.9486 13.0082 12.9002 13.0566L12.2081 13.7487C12.1597 13.7973 12.1022 13.8359 12.0389 13.8622C11.9755 13.8885 11.9076 13.9021 11.839 13.9021C11.7704 13.9021 11.7025 13.8885 11.6391 13.8622C11.5758 13.8359 11.5182 13.7973 11.4698 13.7487Z" fill="#38633F"/>
  </g>
  <defs>
    <clipPath id="clip0_20_1568">
      <rect width="14" height="14" fill="white"/>
    </clipPath>
  </defs>
</svg>