<svg xmlns="http://www.w3.org/2000/svg" width="24" height="24" viewBox="0 0 24 24" fill="none">
  <path d="M17.2308 16.3837V23.25H21.3232V14.2338H17.2308V16.3837Z" fill="#47AA73"/>
  <path d="M5.925 10.9808C6.26803 10.9785 6.46767 10.7532 6.57403 10.5646C6.80405 10.1569 6.80869 9.56578 6.58491 9.18966C6.43903 8.9445 6.21652 8.82108 5.92767 8.82736C5.92463 8.82746 5.92158 8.82746 5.91853 8.82736C5.91314 8.82727 5.90775 8.82722 5.90241 8.82722C5.62008 8.82722 5.40445 8.94914 5.26134 9.18966C5.03756 9.56578 5.0422 10.1569 5.27222 10.5646C5.37858 10.7532 5.57813 10.9785 5.925 10.9808Z" fill="#47AA73"/>
  <path d="M19.511 4.42229L17.5061 6.42722C17.1806 6.75263 16.7823 6.91768 16.3221 6.91768H14.1541C13.837 6.91768 13.5739 7.02666 13.3496 7.25086L10.796 9.80452C10.8147 9.84938 10.8306 9.89541 10.8433 9.94257C10.9381 10.2965 10.8365 10.6554 10.5646 10.9274L10.5237 10.9682C10.6003 11.0203 10.6857 11.054 10.7701 11.0616C10.9018 11.0736 11.0239 11.0238 11.1333 10.9144L13.3675 8.68022C13.4479 8.59974 13.5689 8.57569 13.674 8.61924C13.7791 8.66279 13.8476 8.7653 13.8476 8.87907V16.1025H14.8709V12.1106C14.8709 11.9553 14.9969 11.8294 15.1522 11.8294H15.8241C16.5998 11.8294 17.2309 12.4605 17.2309 13.2362V13.6713H18.2542V13.2362C18.2542 12.2676 17.6783 11.3919 16.7872 11.0053C16.6844 10.9607 16.6179 10.8594 16.6179 10.7473V8.87907C16.6179 8.80449 16.6475 8.73296 16.7003 8.68022L20.2345 5.14594C20.3661 5.01432 20.4109 4.86582 20.3677 4.70447C20.316 4.51168 20.1453 4.34091 19.9524 4.28925C19.7911 4.24604 19.6426 4.2908 19.511 4.42238V4.42229Z" fill="#47AA73"/>
  <path d="M7.92122 18.297H8.9445V17.8618C8.9445 16.8932 8.36869 16.0175 7.47755 15.6309C7.37475 15.5864 7.30824 15.485 7.30824 15.3729V13.5047C7.30824 13.4301 7.33786 13.3586 7.3906 13.3058L10.1668 10.5297C10.2983 10.398 10.3432 10.2495 10.2999 10.0882C10.2482 9.89535 10.0775 9.72454 9.88468 9.67293C9.72329 9.62976 9.57483 9.67448 9.44325 9.80606L8.19643 11.0529C7.87102 11.3783 7.47263 11.5434 7.01241 11.5434H4.84449C4.52738 11.5434 4.26422 11.6524 4.03997 11.8766L2.8989 13.0177C2.44083 13.4758 2.1886 14.086 2.1886 14.736C2.1886 15.0233 2.23829 15.3051 2.3363 15.5735C2.40024 15.7487 2.53036 15.8626 2.71252 15.9029C2.90035 15.9444 3.09526 15.8795 3.22107 15.7334C3.34102 15.5941 3.37191 15.4156 3.30591 15.2437C3.24361 15.0815 3.21207 14.9107 3.21207 14.736C3.21207 14.3592 3.35785 14.006 3.6225 13.7413L4.05788 13.3059C4.13832 13.2254 4.25921 13.2014 4.3644 13.2449C4.46949 13.2885 4.53802 13.391 4.53802 13.5048V20.7282H5.56125V16.7363C5.56125 16.581 5.68721 16.455 5.8425 16.455H6.51441C7.29015 16.455 7.92122 17.0862 7.92122 17.8619V18.297V18.297Z" fill="#47AA73"/>
  <path d="M7.92126 21.0094V23.25H12.0136V18.8595H7.92126V21.0094Z" fill="#47AA73"/>
  <path d="M15.2348 6.35512C15.5778 6.35273 15.7774 6.1275 15.8837 5.93892C16.1138 5.5312 16.1184 4.94006 15.8946 4.56393C15.7487 4.31883 15.528 4.19615 15.2374 4.20164C15.2343 4.20173 15.2313 4.20173 15.2282 4.20164C15.2229 4.20154 15.2174 4.2015 15.2121 4.2015C14.9297 4.2015 14.7142 4.32337 14.5711 4.56389C14.3472 4.94001 14.3519 5.53115 14.5819 5.93887C14.6882 6.1274 14.8878 6.35268 15.2348 6.35508V6.35512Z" fill="#47AA73"/>
  <path d="M22.3357 0.327445C22.3357 0.327404 22.3358 0.327339 22.3357 0.327289C22.2854 0.240715 22.1928 0.1875 22.0926 0.1875H19.7573C19.602 0.1875 19.4761 0.313453 19.4761 0.46875V3.54685C19.4761 3.68889 19.3864 3.81258 19.2697 3.89352C19.215 3.93144 19.1627 3.97515 19.1132 4.02459L17.1083 6.02948C16.8891 6.24867 16.6319 6.35517 16.322 6.35517C16.3063 6.35517 16.2971 6.33744 16.3059 6.32443C16.3295 6.28948 16.3521 6.25322 16.3736 6.2153C16.7001 5.63639 16.7019 4.82095 16.3779 4.27636C16.1295 3.85889 15.7225 3.6322 15.2327 3.63919C14.7437 3.63258 14.3359 3.8588 14.0875 4.27636C13.7635 4.82095 13.7652 5.63644 14.0918 6.2153C14.115 6.25648 14.1397 6.29564 14.1655 6.3333C14.1718 6.34254 14.1653 6.35517 14.1541 6.35517C13.6867 6.35517 13.2822 6.5227 12.9518 6.85317L10.6776 9.12734C10.5513 9.25368 10.3515 9.25738 10.188 9.18528C10.137 9.1628 10.0843 9.1441 10.0301 9.12961C9.67634 9.03473 9.31732 9.13641 9.0454 9.40833L7.79857 10.6552C7.57943 10.8743 7.32223 10.9808 7.01234 10.9808C6.99666 10.9808 6.98745 10.9631 6.99623 10.9501C7.01982 10.9152 7.04248 10.879 7.06385 10.8411C7.39038 10.2621 7.39221 9.44667 7.06821 8.90208C6.81977 8.48452 6.41257 8.25881 5.92301 8.26486C5.43344 8.25769 5.02624 8.48456 4.7778 8.90208C4.45376 9.44667 4.45559 10.2622 4.78216 10.8411C4.80538 10.8822 4.83008 10.9213 4.85581 10.959C4.86212 10.9682 4.85556 10.9808 4.84437 10.9808C4.37707 10.9808 3.97254 11.1484 3.64212 11.4788L2.50104 12.62C1.93676 13.1843 1.62598 13.9357 1.62598 14.736C1.62598 15.0893 1.68715 15.436 1.80776 15.7663C1.93709 16.1207 2.22251 16.3707 2.5909 16.4521C2.98123 16.5384 3.38604 16.4037 3.64718 16.1004C3.90274 15.8036 3.97141 15.408 3.83084 15.042C3.79338 14.9445 3.77435 14.8415 3.77435 14.736C3.77435 14.5313 3.9753 14.5794 3.9753 14.7842V20.3804C3.9753 20.5725 3.81958 20.7282 3.62748 20.7282H2.98498C2.82968 20.7282 2.70373 20.8542 2.70373 21.0095V23.5313C2.70373 23.6866 2.82968 23.8125 2.98498 23.8125H21.6043C21.7596 23.8125 21.8855 23.6866 21.8855 23.5313V13.9526C21.8855 13.7973 21.7596 13.6713 21.6043 13.6713H19.1643C18.9722 13.6713 18.8165 13.5156 18.8165 13.3235V13.2362C18.8165 12.1778 18.2585 11.2097 17.3666 10.6725C17.2545 10.605 17.1802 10.4867 17.1802 10.3559V9.13967C17.1802 9.04742 17.2169 8.95895 17.2821 8.89372L20.6321 5.54367C20.9041 5.2717 21.0057 4.91278 20.9109 4.55888C20.8065 4.16934 20.4874 3.85027 20.0979 3.74588C20.0635 3.73668 20.0384 3.70649 20.0384 3.67096V2.68867C20.0384 2.49657 20.1942 2.34084 20.3863 2.34084H22.0925C22.1927 2.34084 22.2853 2.28755 22.3356 2.20097C22.386 2.11439 22.3864 2.00756 22.3369 1.92052L22.0613 1.43626C22.0006 1.3296 22.0006 1.19884 22.0613 1.09218L22.3369 0.607969C22.3864 0.520951 22.386 0.414118 22.3357 0.327602C22.3357 0.327551 22.3357 0.327487 22.3357 0.327445ZM14.571 4.56394C14.7141 4.32337 14.9297 4.20155 15.212 4.20155C15.2173 4.20155 15.2228 4.20155 15.2282 4.20169C15.2312 4.20178 15.2343 4.20178 15.2373 4.20169C15.5278 4.1962 15.7487 4.31887 15.8945 4.56398C16.1183 4.94011 16.1137 5.53125 15.8837 5.93897C15.7773 6.1275 15.5777 6.35278 15.2347 6.35517C14.8878 6.35278 14.6882 6.12755 14.5818 5.93897C14.3518 5.53125 14.3471 4.94006 14.571 4.56394ZM5.2613 9.18966C5.26131 9.18966 5.26132 9.18965 5.26133 9.18964C5.40444 8.94909 5.62006 8.82722 5.90238 8.82722C5.90773 8.82722 5.91312 8.82722 5.91851 8.82736C5.92155 8.82745 5.9246 8.82745 5.92765 8.82736C6.21649 8.82108 6.43901 8.9445 6.58488 9.18966C6.80866 9.56578 6.80402 10.1569 6.57401 10.5646C6.46765 10.7532 6.26805 10.9785 5.92498 10.9808C5.5781 10.9785 5.37851 10.7532 5.27215 10.5646C5.04214 10.1569 5.03749 9.5658 5.26126 9.18968C5.26127 9.18966 5.26128 9.18966 5.2613 9.18966ZM7.35874 22.9022C7.35874 23.0943 7.20301 23.25 7.01092 23.25H3.61424C3.42214 23.25 3.26641 23.0943 3.26641 22.9022V21.6385C3.26641 21.4464 3.42214 21.2907 3.61424 21.2907H7.01092C7.20301 21.2907 7.35874 21.4464 7.35874 21.6385V22.9022ZM7.35872 18.5783C7.35873 18.5783 7.35874 18.5783 7.35874 18.5783V20.3803C7.35874 20.5724 7.20301 20.7282 7.01092 20.7282H6.47155C6.27945 20.7282 6.12373 20.5724 6.12373 20.3803V17.3653C6.12373 17.1732 6.27945 17.0175 6.47155 17.0175H6.51438C6.97994 17.0175 7.35869 17.3962 7.35869 17.8619V18.5782C7.35869 18.5782 7.35871 18.5783 7.35872 18.5783ZM6.51443 16.455C6.51443 16.455 6.51442 16.455 6.51441 16.455H5.84252C5.68723 16.455 5.56127 16.581 5.56127 16.7362V20.3803C5.56127 20.5724 5.40555 20.7282 5.21345 20.7282H4.88586C4.69377 20.7282 4.53804 20.5724 4.53804 20.3803V13.5047C4.53804 13.391 4.46951 13.2885 4.36441 13.2449C4.25923 13.2013 4.13834 13.2254 4.0579 13.3058L3.62252 13.7412C3.35787 14.0059 3.21209 14.3592 3.21209 14.736C3.21209 14.9107 3.24368 15.0815 3.30593 15.2437C3.37198 15.4156 3.34104 15.5941 3.22109 15.7333C3.09523 15.8795 2.90037 15.9443 2.71254 15.9029C2.53034 15.8626 2.40026 15.7486 2.33632 15.5734C2.2383 15.305 2.18862 15.0233 2.18862 14.736C2.18862 14.086 2.44085 13.4757 2.89891 13.0177L4.03999 11.8765C4.26424 11.6523 4.52735 11.5433 4.84451 11.5433H7.01243C7.47265 11.5433 7.87099 11.3783 8.19644 11.0529L9.44327 9.80602C9.5749 9.67444 9.72335 9.62972 9.88469 9.67289C10.0775 9.72455 10.2483 9.89531 10.2999 10.0881C10.3431 10.2495 10.2984 10.398 10.1668 10.5296L7.39062 13.3058C7.33788 13.3585 7.30826 13.43 7.30826 13.5046V15.3729C7.30826 15.485 7.37477 15.5863 7.47757 15.6309C8.36871 16.0175 8.94448 16.8931 8.94452 17.8618V17.9491C8.94452 18.1412 8.7888 18.297 8.5967 18.297H8.26907C8.07697 18.297 7.92124 18.1412 7.92124 17.9491V17.8618C7.92124 17.0861 7.29018 16.455 6.51445 16.455C6.51444 16.455 6.51443 16.455 6.51443 16.455ZM12.0136 22.9022C12.0136 23.0943 11.8578 23.25 11.6657 23.25H8.26907C8.07697 23.25 7.92124 23.0943 7.92124 22.9022V19.2073C7.92124 19.0152 8.07697 18.8595 8.26907 18.8595H11.6657C11.8578 18.8595 12.0136 19.0152 12.0136 19.2073V22.9022ZM12.0136 16.3837V17.9492C12.0136 18.1413 11.8578 18.297 11.6657 18.297H9.85485C9.66275 18.297 9.50702 18.1413 9.50702 17.9492V17.8618C9.50702 16.8034 8.94909 15.8353 8.05712 15.2981C7.94507 15.2307 7.87076 15.1124 7.87076 14.9816V13.7653C7.87076 13.673 7.9074 13.5846 7.97263 13.5193L9.89904 11.5929C10.0255 11.4665 10.2256 11.4628 10.3891 11.5351C10.495 11.5819 10.6068 11.6118 10.7202 11.6219C11.0169 11.6487 11.305 11.5384 11.5311 11.3122L12.6914 10.1519C12.9105 9.9328 13.2851 10.088 13.2851 10.3979V15.7547C13.2851 15.9468 13.1294 16.1025 12.9373 16.1025H12.2948C12.1395 16.1025 12.0136 16.2285 12.0136 16.3838V16.3837ZM16.6684 22.9022C16.6684 23.0943 16.5127 23.25 16.3206 23.25H12.9239C12.7318 23.25 12.5761 23.0943 12.5761 22.9022V17.0128C12.5761 16.8207 12.7318 16.665 12.9239 16.665H16.3206C16.5127 16.665 16.6684 16.8207 16.6684 17.0128V22.9022ZM16.6684 13.9525V15.7546C16.6684 15.9467 16.5127 16.1025 16.3206 16.1025H15.7813C15.5892 16.1025 15.4334 15.9467 15.4334 15.7546V12.7397C15.4334 12.5476 15.5892 12.3918 15.7813 12.3918H15.8241C16.2896 12.3918 16.6684 12.7706 16.6684 13.2361V13.9525ZM20.9754 14.2338C21.1675 14.2338 21.3232 14.3895 21.3232 14.5816V22.9022C21.3232 23.0943 21.1675 23.25 20.9754 23.25H17.5787C17.3866 23.25 17.2309 23.0943 17.2309 22.9022V14.5816C17.2309 14.3895 17.3866 14.2338 17.5787 14.2338H20.9754ZM20.3677 4.70433C20.3677 4.70436 20.3677 4.70439 20.3677 4.70442C20.4109 4.86575 20.3661 5.01423 20.2346 5.14584L16.7003 8.68012C16.6475 8.73286 16.6179 8.80439 16.6179 8.87897V10.7472C16.6179 10.8593 16.6844 10.9606 16.7872 11.0052C17.6783 11.3918 18.2541 12.2675 18.2542 13.2361V13.3234C18.2542 13.5155 18.0985 13.6712 17.9064 13.6712H17.5787C17.3866 13.6712 17.2309 13.5155 17.2309 13.3234V13.2361C17.2309 12.4604 16.5998 11.8293 15.8241 11.8293H15.1522C14.9969 11.8293 14.8709 11.9552 14.8709 12.1105V15.7546C14.8709 15.9467 14.7152 16.1024 14.5231 16.1024H14.1955C14.0034 16.1024 13.8476 15.9467 13.8476 15.7546V8.87897C13.8476 8.7652 13.7791 8.66269 13.674 8.61914C13.5689 8.57555 13.4479 8.59964 13.3675 8.68012L11.1333 10.9143C11.0239 11.0237 10.9018 11.0735 10.7701 11.0615C10.7033 11.0555 10.636 11.0332 10.5729 10.9984C10.5466 10.9839 10.5434 10.9485 10.5646 10.9273C10.8365 10.6553 10.9381 10.2964 10.8433 9.94247C10.8204 9.85714 10.8368 9.76364 10.8993 9.70117L13.3496 7.25077C13.5739 7.02656 13.837 6.91758 14.1542 6.91758H16.3221C16.7823 6.91758 17.1806 6.75253 17.5061 6.42712L19.511 4.42219C19.6426 4.29061 19.7911 4.24584 19.9525 4.28906C20.1453 4.34076 20.316 4.51146 20.3677 4.70424C20.3677 4.70427 20.3677 4.7043 20.3677 4.70433ZM21.3956 1.4032C21.3956 1.4032 21.3956 1.40321 21.3956 1.40322L21.5023 1.59073C21.5499 1.67437 21.4895 1.77825 21.3933 1.77825H20.3865C20.1944 1.77825 20.0387 1.62252 20.0387 1.43042V1.09778C20.0387 0.90568 20.1944 0.749953 20.3865 0.749953H21.1775C21.37 0.749953 21.4908 0.957693 21.3956 1.12495C21.3465 1.2112 21.3465 1.31694 21.3956 1.40318C21.3956 1.40319 21.3956 1.4032 21.3956 1.4032Z" fill="#47AA73"/>
</svg>