<svg width="55" height="54" viewBox="0 0 55 54" fill="none" xmlns="http://www.w3.org/2000/svg" xmlns:xlink="http://www.w3.org/1999/xlink">
<circle cx="27.6667" cy="27" r="26.5" fill="#dcf1c9" stroke="#C5F8D8"/>
<circle cx="27.6667" cy="27" r="27" fill="url(#pattern0_20_1793)" fill-opacity="0.3"/>
<g clip-path="url(#clip0_20_1793)">
<path d="M14.9375 30.875H12.9375C12.4197 30.875 12 31.2947 12 31.8125V43.0625C12 43.5802 12.4197 44 12.9375 44H15.875V31.8125C15.875 31.2947 15.4553 30.875 14.9375 30.875Z" fill="#38633F"/>
<path d="M40.1879 31.5004L36.0904 34.3695C36.1623 34.6721 36.2015 34.9873 36.2015 35.3119C36.2015 37.5558 34.3824 39.3748 32.1385 39.3746L26.3973 39.3741C25.8796 39.3741 25.4598 38.9543 25.4599 38.4366C25.4599 37.9188 25.8797 37.4991 26.3974 37.4991L32.1386 37.4996L32.1388 37.4994C33.3469 37.4995 34.3264 36.5201 34.3265 35.3118C34.3265 34.1036 33.3471 33.1241 32.1389 33.1241H26.9978C26.1967 33.1241 25.4164 32.8941 24.7285 32.4836C22.9135 31.4003 20.694 31.2992 18.7875 32.2138L17.75 32.7115V43.9999H30.6928C32.8735 43.9999 34.943 43.1705 36.5201 41.6644L43.2506 35.2369C43.7292 34.7798 44 34.1468 44 33.4849C44 31.5248 41.7935 30.3762 40.1879 31.5004Z" fill="#38633F"/>
<path d="M39.25 18.25C38.7322 18.25 38.3125 18.6697 38.3125 19.1875C38.3125 19.7053 38.7322 20.125 39.25 20.125H41.125C41.6428 20.125 42.0625 19.7053 42.0625 19.1875C42.0625 18.6697 41.6428 18.25 41.125 18.25H39.25Z" fill="#38633F"/>
<path d="M39.0938 15.9369L40.7175 14.9994C41.1659 14.7405 41.3195 14.1671 41.0606 13.7188C40.8018 13.2704 40.2284 13.1168 39.78 13.3756L38.1563 14.3131C37.7079 14.572 37.5543 15.1454 37.8131 15.5938C38.072 16.0421 38.6454 16.1958 39.0938 15.9369Z" fill="#47AA73"/>
<path d="M38.1563 24.0619L39.78 24.9994C40.2284 25.2583 40.8018 25.1046 41.0606 24.6563C41.3195 24.2079 41.1659 23.6345 40.7175 23.3756L39.0938 22.4381C38.6454 22.1793 38.072 22.3329 37.8131 22.7813C37.5543 23.2296 37.7079 23.803 38.1563 24.0619Z" fill="#47AA73"/>
<path d="M19.25 20.125C19.7678 20.125 20.1875 19.7053 20.1875 19.1875C20.1875 18.6697 19.7678 18.25 19.25 18.25H17.375C16.8572 18.25 16.4375 18.6697 16.4375 19.1875C16.4375 19.7053 16.8572 20.125 17.375 20.125H19.25Z" fill="#38633F"/>
<path d="M17.7825 14.9994L19.4062 15.9369C19.8546 16.1958 20.428 16.0421 20.6869 15.5938C20.9457 15.1454 20.7921 14.572 20.3437 14.3131L18.72 13.3756C18.2716 13.1168 17.6982 13.2704 17.4394 13.7188C17.1805 14.1671 17.3341 14.7405 17.7825 14.9994Z" fill="#47AA73"/>
<path d="M18.72 24.9994L20.3437 24.0619C20.7921 23.803 20.9457 23.2296 20.6869 22.7813C20.428 22.3329 19.8546 22.1793 19.4062 22.4381L17.7825 23.3756C17.3341 23.6345 17.1805 24.2079 17.4394 24.6563C17.6982 25.1046 18.2715 25.2583 18.72 24.9994Z" fill="#47AA73"/>
<path d="M25.5781 29.1875C25.5781 30.3956 26.5575 31.375 27.7656 31.375H30.7344C31.9425 31.375 32.9219 30.3956 32.9219 29.1875V28.5625H25.5781V29.1875Z" fill="#47AA73"/>
<path d="M24.6785 24.7286C25.2502 25.1999 25.5781 25.8486 25.5781 26.5083V26.6875H28.3125V20.8258L26.7121 19.2254C26.346 18.8593 26.346 18.2657 26.7121 17.8996C27.0782 17.5335 27.6718 17.5335 28.0379 17.8996L29.25 19.1117L30.4621 17.8996C30.8282 17.5335 31.4218 17.5335 31.7879 17.8996C32.1541 18.2657 32.1541 18.8593 31.7879 19.2254L30.1875 20.8258V26.6875H32.9219V26.5083C32.9219 25.8486 33.2498 25.1999 33.8215 24.7286C35.484 23.3579 36.4375 21.3383 36.4375 19.1875C36.4375 15.2243 33.2132 12 29.25 12C25.2868 12 22.0625 15.2243 22.0625 19.1875C22.0625 21.3383 23.016 23.3579 24.6785 24.7286Z" fill="#38633F"/>
</g>
<defs>
<pattern id="pattern0_20_1793" patternContentUnits="objectBoundingBox" width="1" height="1">
<use xlink:href="#image0_20_1793" transform="translate(-0.374891) scale(0.000874891)"/>
</pattern>
<clipPath id="clip0_20_1793">
<rect width="32" height="32" fill="white" transform="translate(12 12)"/>
</clipPath>
</defs>
</svg>
