<svg width="55" height="54" viewBox="0 0 55 54" fill="none" xmlns="http://www.w3.org/2000/svg" xmlns:xlink="http://www.w3.org/1999/xlink">
<circle cx="27.6667" cy="27" r="26.5" fill="#dcf1c9" stroke="#C5F8D8"/>
<g clip-path="url(#clip0_20_1737)">
<path d="M35.4396 21.3813C35.4396 25.8563 31.8083 29.4876 27.3333 29.4876C22.8583 29.4876 19.2271 25.8563 19.2271 21.3813C19.2271 20.6063 19.3396 19.8501 19.5396 19.1376V19.1501C19.5396 19.1501 22.2771 21.3813 27.3333 21.3813C32.3896 21.3813 35.1271 19.1501 35.1271 19.1501V19.1376C35.3271 19.8563 35.4396 20.6063 35.4396 21.3813Z" fill="#47AA73"/>
<path d="M41.9833 39.8938L39.4458 32.2063C38.7271 30.0251 36.2333 28.9938 34.1833 30.0376C33.6896 30.2938 33.1396 30.5313 32.5396 30.7501L28.2146 35.0751C27.7271 35.5626 26.9333 35.5626 26.4458 35.0751L22.1208 30.7501C21.5208 30.5313 20.9771 30.2938 20.4771 30.0376C18.4333 28.9938 15.9333 30.0251 15.2146 32.2063L12.6771 39.8938C12.0208 41.9188 13.5271 44.0001 15.6521 44.0001H39.0083C41.1396 44.0001 42.6458 41.9188 41.9833 39.8938ZM38.2333 35.9626C38.2333 36.4126 37.8646 36.7813 37.4146 36.7813H34.4208C33.9708 36.7813 33.6021 36.4126 33.6021 35.9626C33.6021 35.5126 33.9708 35.1438 34.4208 35.1438H37.4146C37.8646 35.1438 38.2333 35.5063 38.2333 35.9626Z" fill="#38633F"/>
<path d="M38.7084 14.3938L28.7584 12.1438C27.8209 11.9438 26.8459 11.9438 25.9084 12.1438L15.9584 14.3938C15.4646 14.5063 15.1146 14.9438 15.1146 15.4438C15.1146 15.9438 15.4709 16.3875 15.9584 16.5L16.2209 16.5625V21.4438L15.5834 24.3313C15.3834 25.2188 16.0646 26.0625 16.9771 26.0625C17.8896 26.0625 18.5646 25.2188 18.3709 24.3313L17.7334 21.4438V16.9L25.9521 18.7688C26.8646 18.975 27.8084 18.975 28.7209 18.7688L38.7084 16.5C39.2021 16.3875 39.5459 15.95 39.5459 15.45C39.5459 14.95 39.1959 14.5063 38.7084 14.3938Z" fill="#38633F"/>
</g>

</svg>

