<svg xmlns="http://www.w3.org/2000/svg" width="24" height="24" viewBox="0 0 24 24" fill="none">
  <g clip-path="url(#clip0_119_86)">
    <path d="M17.9999 2.475C16.2374 1.3875 14.2124 0.75 11.9999 0.75V2.475H17.9999Z" fill="#ED4C5C"/>
    <path d="M11.9999 4.19998H20.0999C19.4624 3.56248 18.7499 2.96248 17.9999 2.47498H11.9999V4.19998Z" fill="white"/>
    <path d="M11.9999 5.92495H21.4874C21.0749 5.28745 20.6249 4.72495 20.1374 4.19995H11.9999V5.92495Z" fill="#ED4C5C"/>
    <path d="M11.9999 7.64993H22.3874C22.1249 7.04993 21.8249 6.44993 21.4874 5.92493H11.9999V7.64993Z" fill="white"/>
    <path d="M11.9999 9.37502H22.9499C22.7999 8.77502 22.6124 8.21252 22.3874 7.65002H11.9999V9.37502Z" fill="#ED4C5C"/>
    <path d="M11.9999 11.1375H23.2124C23.1749 10.5375 23.0624 9.97498 22.9499 9.41248H11.9999V11.1375Z" fill="white"/>
    <path d="M23.2124 11.1375H11.9999V12H0.749939C0.749939 12.3 0.749939 12.5625 0.787439 12.8625H23.2124C23.2499 12.5625 23.2499 12.3 23.2499 12C23.2499 11.7 23.2499 11.4 23.2124 11.1375Z" fill="#ED4C5C"/>
    <path d="M1.04998 14.5874H22.95C23.1 14.0249 23.175 13.4624 23.2125 12.8624H0.787476C0.824976 13.4249 0.899976 14.0249 1.04998 14.5874Z" fill="white"/>
    <path d="M1.61243 16.3125H22.3874C22.6124 15.75 22.7999 15.1875 22.9499 14.5875H1.04993C1.19993 15.1875 1.38743 15.75 1.61243 16.3125Z" fill="#ED4C5C"/>
    <path d="M2.51243 18.0375H21.4874C21.8249 17.475 22.1249 16.9125 22.3874 16.3125H1.61243C1.87493 16.9125 2.17493 17.475 2.51243 18.0375Z" fill="white"/>
    <path d="M3.86245 19.7625H20.1375C20.625 19.2375 21.1125 18.6375 21.4875 18.0375H2.51245C2.88745 18.675 3.37495 19.2375 3.86245 19.7625Z" fill="#ED4C5C"/>
    <path d="M5.96243 21.4875H18.0374C18.8249 21 19.4999 20.4 20.1374 19.7625H3.86243C4.49993 20.4375 5.21243 21 5.96243 21.4875Z" fill="white"/>
    <path d="M12 23.2499C14.2125 23.2499 16.275 22.6124 18.0375 21.4874H5.96246C7.72496 22.6124 9.78746 23.2499 12 23.2499Z" fill="#ED4C5C"/>
    <path d="M5.99994 2.475C5.21244 2.9625 4.49994 3.5625 3.86244 4.2C3.33744 4.725 2.88744 5.325 2.51244 5.925C2.17494 6.4875 1.83744 7.05 1.61244 7.65C1.38744 8.2125 1.19994 8.775 1.04994 9.375C0.899939 9.9375 0.824939 10.5 0.787439 11.1C0.749939 11.4 0.749939 11.7 0.749939 12H11.9999V0.75C9.78744 0.75 7.76244 1.3875 5.99994 2.475Z" fill="#428BC1"/>
    <path d="M9.37496 1.125L9.56246 1.6875H10.125L9.67496 2.0625L9.82496 2.625L9.37496 2.2875L8.92496 2.625L9.07496 2.0625L8.62496 1.6875H9.18746L9.37496 1.125ZM10.875 3.375L11.0625 3.9375H11.625L11.175 4.3125L11.325 4.875L10.875 4.5375L10.425 4.875L10.575 4.3125L10.125 3.9375H10.6875L10.875 3.375ZM7.87496 3.375L8.06246 3.9375H8.62496L8.17496 4.3125L8.32496 4.875L7.87496 4.5375L7.42496 4.875L7.57496 4.3125L7.12496 3.9375H7.68746L7.87496 3.375ZM9.37496 5.625L9.56246 6.1875H10.125L9.67496 6.5625L9.82496 7.125L9.37496 6.7875L8.92496 7.125L9.07496 6.5625L8.62496 6.1875H9.18746L9.37496 5.625ZM6.37496 5.625L6.56246 6.1875H7.12496L6.67496 6.5625L6.82496 7.125L6.37496 6.7875L5.92496 7.125L6.07496 6.5625L5.62496 6.1875H6.18746L6.37496 5.625ZM3.37496 5.625L3.56246 6.1875H4.12496L3.67496 6.5625L3.82496 7.125L3.37496 6.7875L2.92496 7.125L3.07496 6.5625L2.62496 6.1875H3.18746L3.37496 5.625ZM10.875 7.875L11.0625 8.4375H11.625L11.175 8.8125L11.325 9.375L10.875 9.0375L10.425 9.375L10.575 8.8125L10.125 8.4375H10.6875L10.875 7.875ZM7.87496 7.875L8.06246 8.4375H8.62496L8.17496 8.8125L8.32496 9.375L7.87496 9.0375L7.42496 9.375L7.57496 8.8125L7.12496 8.4375H7.68746L7.87496 7.875ZM4.87496 7.875L5.06246 8.4375H5.62496L5.17496 8.8125L5.32496 9.375L4.87496 9.0375L4.42496 9.375L4.57496 8.8125L4.12496 8.4375H4.68746L4.87496 7.875ZM9.37496 10.125L9.56246 10.6875H10.125L9.67496 11.0625L9.82496 11.625L9.37496 11.2875L8.92496 11.625L9.07496 11.0625L8.62496 10.6875H9.18746L9.37496 10.125ZM6.37496 10.125L6.56246 10.6875H7.12496L6.67496 11.0625L6.82496 11.625L6.37496 11.2875L5.92496 11.625L6.07496 11.0625L5.62496 10.6875H6.18746L6.37496 10.125ZM3.37496 10.125L3.56246 10.6875H4.12496L3.67496 11.0625L3.82496 11.625L3.37496 11.2875L2.92496 11.625L3.07496 11.0625L2.62496 10.6875H3.18746L3.37496 10.125ZM4.42496 4.875L4.87496 4.5375L5.32496 4.875L5.13746 4.3125L5.58746 3.9375H5.02496L4.87496 3.375L4.68746 3.9375H4.16246L4.61246 4.275L4.42496 4.875ZM1.42496 9.375L1.87496 9.0375L2.32496 9.375L2.13746 8.8125L2.58746 8.4375H2.06246L1.87496 7.875L1.68746 8.4375H1.31246C1.31246 8.475 1.27496 8.5125 1.27496 8.55L1.57496 8.775L1.42496 9.375Z" fill="white"/>
  </g>
  <defs>
    <clipPath id="clip0_119_86">
      <rect width="24" height="24" fill="white"/>
    </clipPath>
  </defs>
</svg>