<svg width="580" height="366" viewBox="0 0 580 366" fill="none" xmlns="http://www.w3.org/2000/svg">
<circle cx="83.212" cy="64.6087" r="32.6088" transform="rotate(-180 83.212 64.6087)" fill="#FAF99D"/>
<path d="M115.821 65L247.821 8.70834V121.292L115.821 65Z" fill="#04653C"/>
<rect x="534.821" y="107.846" width="225.511" height="93.8463" transform="rotate(180 534.821 107.846)" fill="#FAF99D"/>
<circle cx="308.481" cy="61.3397" r="32.3397" transform="rotate(90 308.481 61.3397)" fill="#01633A"/>
<path fill-rule="evenodd" clip-rule="evenodd" d="M-0.00012207 349H177.821V312L89.0208 343.08L0.22081 312L89.0208 280.92L177.821 312V275H-0.00012207V349Z" fill="#38633F"/>
<circle cx="212.212" cy="311.609" r="32.6088" transform="rotate(-180 212.212 311.609)" fill="#007EE6"/>
<path d="M245.251 311.5L355.928 264.302V358.698L245.251 311.5Z" fill="#F7F9A4"/>
<rect x="579.821" y="358.846" width="225.511" height="93.8463" transform="rotate(180 579.821 358.846)" fill="#38633F"/>
<circle cx="347.481" cy="312.34" r="32.3397" transform="rotate(90 347.481 312.34)" fill="#007EE6"/>
<circle cx="514.481" cy="177.34" r="32.3397" transform="rotate(90 514.481 177.34)" fill="#0B7EFA"/>
<path d="M140.821 178.5L52.4823 216.172V140.828L140.821 178.5Z" fill="#0A7DFC"/>
<path fill-rule="evenodd" clip-rule="evenodd" d="M140.512 218.358H340.821V135H140.512V218.358ZM240.205 146.995C224.209 146.995 211.241 159.963 211.241 175.959C211.241 191.956 224.209 204.924 240.205 204.924C256.202 204.924 269.17 191.956 269.17 175.959C269.17 159.963 256.202 146.995 240.205 146.995Z" fill="#FAFA9C"/>
<path d="M301.983 178.865L391.95 126.163L481.725 179.191L391.758 231.893L301.983 178.865Z" fill="#03643B"/>
</svg>
