<svg width="178" height="299" viewBox="0 0 178 299" fill="none" xmlns="http://www.w3.org/2000/svg">
<circle cx="33.3172" cy="256.089" r="16.8156" transform="rotate(90 33.3172 256.089)" fill="#FAF99D"/>
<path d="M33.5189 239.274L4.49059 171.204H62.5472L33.5189 239.274Z" fill="#04653C"/>
<rect x="55.6138" y="23.2053" width="116.291" height="48.3943" transform="rotate(90 55.6138 23.2053)" fill="#FAF99D"/>
<circle cx="31.6314" cy="139.923" r="16.6768" fill="#01633A"/>
<path fill-rule="evenodd" clip-rule="evenodd" d="M179.971 299V207.302H160.891L176.918 253.094L160.891 298.886L144.864 253.094L160.891 207.302H141.811V299H179.971Z" fill="#38633F"/>
<circle cx="160.689" cy="189.567" r="16.8156" transform="rotate(90 160.689 189.567)" fill="#007EE6"/>
<path d="M160.633 172.53L136.294 115.456H184.972L160.633 172.53Z" fill="#F7F9A4"/>
<rect x="185.048" width="116.291" height="48.3943" transform="rotate(90 185.048 0)" fill="#38633F"/>
<circle cx="161.066" cy="119.812" r="16.6768" fill="#007EE6"/>
<circle cx="91.45" cy="33.6942" r="16.6768" fill="#0B7EFA"/>
<path d="M92.0484 226.382L111.475 271.936H72.6218L92.0484 226.382Z" fill="#0A7DFC"/>
<path fill-rule="evenodd" clip-rule="evenodd" d="M112.602 226.541V123.247H69.6164V226.541H112.602ZM75.8018 175.132C75.8018 183.381 82.489 190.068 90.7381 190.068C98.9873 190.068 105.674 183.381 105.674 175.132C105.674 166.882 98.9873 160.195 90.7381 160.195C82.489 160.195 75.8018 166.882 75.8018 175.132Z" fill="#FAFA9C"/>
<path d="M92.2367 143.274L65.0593 96.8806L92.4047 50.5857L119.582 96.9794L92.2367 143.274Z" fill="#03643B"/>
</svg>
